<svg width="828" height="620" viewBox="0 0 828 620" fill="none" xmlns="http://www.w3.org/2000/svg">
<path d="M283.101 567.415C314.278 586.536 348.916 599.328 385.037 605.062C421.158 610.795 458.055 609.358 493.621 600.831C529.186 592.304 562.724 576.856 592.318 555.367C621.913 533.878 646.985 506.771 666.103 475.592" stroke="url(#paint0_linear_52_1248)" stroke-opacity="0.15" stroke-width="8.63598" stroke-miterlimit="10"/>
<path d="M303.314 534.457C330.154 550.918 359.974 561.93 391.071 566.866C422.167 571.802 453.931 570.564 484.549 563.223C515.168 555.883 544.04 542.583 569.518 524.083C594.995 505.583 616.58 482.246 633.038 455.404" stroke="url(#paint1_linear_52_1248)" stroke-opacity="0.15" stroke-width="8.63598" stroke-miterlimit="10"/>
<path d="M326.748 496.247C348.579 509.636 372.834 518.594 398.127 522.608C423.42 526.623 449.256 525.616 474.16 519.645C499.064 513.674 522.548 502.855 543.271 487.808C563.994 472.76 581.549 453.778 594.935 431.945" stroke="url(#paint2_linear_52_1248)" stroke-opacity="0.15" stroke-width="8.63598" stroke-miterlimit="10"/>
<g filter="url(#filter0_d_52_1248)">
<rect x="27" y="21" width="373.506" height="150.05" rx="17.272" fill="white"/>
</g>
<path d="M51.6866 73.6234V61.062H55.931C56.9124 61.062 57.7179 61.2296 58.3476 61.5649C58.9773 61.8961 59.4435 62.3521 59.746 62.9327C60.0486 63.5133 60.1999 64.1737 60.1999 64.9138C60.1999 65.6539 60.0486 66.3102 59.746 66.8827C59.4435 67.4551 58.9794 67.9049 58.3537 68.2321C57.7281 68.5551 56.9287 68.7166 55.9555 68.7166H52.5208V67.3427H55.9065C56.5771 67.3427 57.1168 67.2446 57.5257 67.0483C57.9387 66.852 58.2372 66.574 58.4212 66.2141C58.6093 65.8502 58.7033 65.4168 58.7033 64.9138C58.7033 64.4109 58.6093 63.9713 58.4212 63.5951C58.2331 63.2189 57.9326 62.9286 57.5196 62.7242C57.1066 62.5156 56.5607 62.4114 55.8819 62.4114H53.2077V73.6234H51.6866ZM57.5993 67.9806L60.6906 73.6234H58.9242L55.8819 67.9806H57.5993ZM66.3871 73.8197C65.4793 73.8197 64.6963 73.6193 64.038 73.2186C63.3837 72.8138 62.8787 72.2495 62.523 71.5258C62.1713 70.7979 61.9955 69.9515 61.9955 68.9865C61.9955 68.0215 62.1713 67.171 62.523 66.4349C62.8787 65.6948 63.3735 65.1183 64.0073 64.7053C64.6452 64.2882 65.3894 64.0797 66.2399 64.0797C66.7306 64.0797 67.2151 64.1614 67.6935 64.325C68.172 64.4886 68.6074 64.7544 69 65.1224C69.3925 65.4863 69.7053 65.9688 69.9384 66.5699C70.1715 67.171 70.288 67.9111 70.288 68.7902V69.4036H63.0259V68.1523H68.816C68.816 67.6208 68.7097 67.1464 68.497 66.7293C68.2885 66.3123 67.99 65.9831 67.6015 65.7419C67.2172 65.5006 66.7633 65.38 66.2399 65.38C65.6633 65.38 65.1645 65.5231 64.7433 65.8093C64.3262 66.0915 64.0053 66.4595 63.7804 66.9134C63.5555 67.3672 63.443 67.8538 63.443 68.3731V69.2073C63.443 69.9188 63.5657 70.5219 63.811 71.0167C64.0605 71.5074 64.406 71.8815 64.8476 72.1391C65.2892 72.3926 65.8024 72.5194 66.3871 72.5194C66.7674 72.5194 67.1109 72.4662 67.4175 72.3599C67.7283 72.2495 67.9961 72.0859 68.221 71.8692C68.4459 71.6484 68.6197 71.3745 68.7424 71.0473L70.1408 71.4399C69.9936 71.9142 69.7462 72.3313 69.3987 72.6911C69.0511 73.0469 68.6217 73.3249 68.1106 73.5253C67.5995 73.7215 67.025 73.8197 66.3871 73.8197ZM79.9069 64.2023L76.4231 73.6234H74.951L71.4672 64.2023H73.0374L75.638 71.7098H75.7361L78.3367 64.2023H79.9069ZM85.4301 73.8197C84.5224 73.8197 83.7393 73.6193 83.081 73.2186C82.4267 72.8138 81.9218 72.2495 81.566 71.5258C81.2144 70.7979 81.0385 69.9515 81.0385 68.9865C81.0385 68.0215 81.2144 67.171 81.566 66.4349C81.9218 65.6948 82.4165 65.1183 83.0503 64.7053C83.6882 64.2882 84.4324 64.0797 85.2829 64.0797C85.7736 64.0797 86.2581 64.1614 86.7366 64.325C87.215 64.4886 87.6505 64.7544 88.043 65.1224C88.4355 65.4863 88.7483 65.9688 88.9814 66.5699C89.2145 67.171 89.331 67.9111 89.331 68.7902V69.4036H82.069V68.1523H87.859C87.859 67.6208 87.7527 67.1464 87.54 66.7293C87.3315 66.3123 87.033 65.9831 86.6446 65.7419C86.2602 65.5006 85.8063 65.38 85.2829 65.38C84.7064 65.38 84.2075 65.5231 83.7863 65.8093C83.3693 66.0915 83.0483 66.4595 82.8234 66.9134C82.5985 67.3672 82.486 67.8538 82.486 68.3731V69.2073C82.486 69.9188 82.6087 70.5219 82.854 71.0167C83.1035 71.5074 83.449 71.8815 83.8906 72.1391C84.3322 72.3926 84.8454 72.5194 85.4301 72.5194C85.8104 72.5194 86.1539 72.4662 86.4605 72.3599C86.7713 72.2495 87.0391 72.0859 87.264 71.8692C87.4889 71.6484 87.6627 71.3745 87.7854 71.0473L89.1838 71.4399C89.0366 71.9142 88.7892 72.3313 88.4417 72.6911C88.0941 73.0469 87.6648 73.3249 87.1536 73.5253C86.6425 73.7215 86.068 73.8197 85.4301 73.8197ZM92.9805 67.956V73.6234H91.533V64.2023H92.9314V65.6744H93.0541C93.2749 65.196 93.6102 64.8116 94.06 64.5213C94.5098 64.2269 95.0904 64.0797 95.8019 64.0797C96.4398 64.0797 96.9979 64.2105 97.4763 64.4722C97.9547 64.7298 98.3268 65.1224 98.5926 65.6498C98.8584 66.1732 98.9913 66.8357 98.9913 67.6371V73.6234H97.5438V67.7352C97.5438 66.9951 97.3516 66.4186 96.9673 66.0056C96.5829 65.5885 96.0554 65.38 95.3848 65.38C94.9227 65.38 94.5098 65.4802 94.1458 65.6805C93.786 65.8809 93.5018 66.1732 93.2933 66.5576C93.0847 66.942 92.9805 67.4081 92.9805 67.956ZM107.574 69.7716V64.2023H109.021V73.6234H107.574V72.0287H107.475C107.255 72.5071 106.911 72.914 106.445 73.2493C105.979 73.5805 105.39 73.7461 104.679 73.7461C104.09 73.7461 103.566 73.6173 103.108 73.3597C102.65 73.098 102.291 72.7054 102.029 72.182C101.767 71.6546 101.636 70.9901 101.636 70.1886V64.2023H103.084V70.0905C103.084 70.7775 103.276 71.3254 103.66 71.7343C104.049 72.1432 104.544 72.3476 105.145 72.3476C105.505 72.3476 105.871 72.2556 106.243 72.0716C106.619 71.8876 106.934 71.6055 107.187 71.2252C107.445 70.8449 107.574 70.3604 107.574 69.7716ZM115.622 73.8197C114.715 73.8197 113.932 73.6193 113.273 73.2186C112.619 72.8138 112.114 72.2495 111.758 71.5258C111.407 70.7979 111.231 69.9515 111.231 68.9865C111.231 68.0215 111.407 67.171 111.758 66.4349C112.114 65.6948 112.609 65.1183 113.243 64.7053C113.88 64.2882 114.625 64.0797 115.475 64.0797C115.966 64.0797 116.45 64.1614 116.929 64.325C117.407 64.4886 117.843 64.7544 118.235 65.1224C118.628 65.4863 118.941 65.9688 119.174 66.5699C119.407 67.171 119.523 67.9111 119.523 68.7902V69.4036H112.261V68.1523H118.051C118.051 67.6208 117.945 67.1464 117.732 66.7293C117.524 66.3123 117.225 65.9831 116.837 65.7419C116.452 65.5006 115.999 65.38 115.475 65.38C114.899 65.38 114.4 65.5231 113.979 65.8093C113.561 66.0915 113.24 66.4595 113.016 66.9134C112.791 67.3672 112.678 67.8538 112.678 68.3731V69.2073C112.678 69.9188 112.801 70.5219 113.046 71.0167C113.296 71.5074 113.641 71.8815 114.083 72.1391C114.524 72.3926 115.038 72.5194 115.622 72.5194C116.003 72.5194 116.346 72.4662 116.653 72.3599C116.964 72.2495 117.231 72.0859 117.456 71.8692C117.681 71.6484 117.855 71.3745 117.978 71.0473L119.376 71.4399C119.229 71.9142 118.981 72.3313 118.634 72.6911C118.286 73.0469 117.857 73.3249 117.346 73.5253C116.835 73.7215 116.26 73.8197 115.622 73.8197Z" fill="black"/>
<path d="M60.1123 128.191V98.7502H61.9983V128.191H60.1123ZM65.5519 108.169C65.4446 107.165 64.9923 106.383 64.1949 105.823C63.4052 105.263 62.3778 104.983 61.1128 104.983C60.2235 104.983 59.4606 105.118 58.8242 105.386C58.1879 105.654 57.701 106.018 57.3637 106.478C57.0264 106.938 56.8539 107.464 56.8462 108.054C56.8462 108.545 56.9574 108.97 57.1797 109.33C57.4097 109.691 57.7202 109.998 58.1112 110.251C58.5022 110.496 58.9354 110.703 59.4108 110.872C59.8861 111.04 60.3653 111.182 60.8483 111.297L63.0564 111.849C63.9457 112.056 64.8006 112.336 65.6209 112.689C66.449 113.041 67.1888 113.486 67.8405 114.023C68.4999 114.559 69.0212 115.207 69.4046 115.966C69.7879 116.725 69.9796 117.615 69.9796 118.634C69.9796 120.014 69.6269 121.229 68.9215 122.28C68.2162 123.323 67.1965 124.139 65.8624 124.729C64.5361 125.312 62.9299 125.603 61.0438 125.603C59.2114 125.603 57.6205 125.32 56.2712 124.752C54.9295 124.185 53.8791 123.357 53.1201 122.268C52.3687 121.18 51.9624 119.853 51.901 118.289H56.0987C56.16 119.11 56.413 119.792 56.8577 120.336C57.3024 120.881 57.8812 121.287 58.5942 121.555C59.3149 121.824 60.1199 121.958 61.0093 121.958C61.937 121.958 62.7497 121.82 63.4474 121.544C64.1527 121.26 64.7047 120.869 65.1034 120.371C65.5021 119.865 65.7053 119.274 65.7129 118.6C65.7053 117.986 65.5251 117.48 65.1724 117.082C64.8198 116.675 64.3252 116.338 63.6889 116.07C63.0602 115.794 62.3242 115.548 61.4808 115.334L58.8012 114.644C56.8615 114.145 55.3281 113.39 54.2011 112.378C53.0817 111.358 52.5221 110.005 52.5221 108.318C52.5221 106.931 52.8977 105.716 53.6491 104.673C54.4081 103.63 55.4393 102.821 56.7427 102.246C58.0461 101.664 59.5219 101.372 61.1703 101.372C62.8417 101.372 64.3061 101.664 65.5634 102.246C66.8285 102.821 67.8213 103.622 68.542 104.65C69.2627 105.67 69.6346 106.843 69.6576 108.169H65.5519ZM82.006 125.569C80.35 125.569 78.8779 125.285 77.5899 124.718C76.3095 124.151 75.2975 123.361 74.5538 122.349C73.8101 121.337 73.4153 120.168 73.3693 118.841H77.6934C77.7317 119.478 77.9426 120.033 78.3259 120.509C78.7093 120.976 79.2191 121.341 79.8555 121.601C80.4918 121.862 81.2048 121.992 81.9945 121.992C82.8379 121.992 83.5854 121.847 84.2371 121.555C84.8888 121.256 85.3986 120.842 85.7666 120.313C86.1347 119.784 86.3148 119.175 86.3072 118.485C86.3148 117.772 86.1308 117.143 85.7551 116.599C85.3795 116.054 84.8351 115.629 84.1221 115.322C83.4167 115.015 82.5657 114.862 81.569 114.862H79.4875V111.573H81.569C82.3894 111.573 83.1062 111.431 83.7196 111.148C84.3406 110.864 84.8275 110.465 85.1801 109.952C85.5328 109.43 85.7053 108.828 85.6976 108.146C85.7053 107.479 85.5558 106.9 85.2491 106.409C84.9501 105.911 84.5246 105.524 83.9726 105.248C83.4282 104.972 82.7881 104.834 82.052 104.834C81.3314 104.834 80.6643 104.964 80.051 105.225C79.4376 105.486 78.9431 105.857 78.5674 106.34C78.1918 106.816 77.9924 107.383 77.9694 108.042H73.8638C73.8945 106.724 74.274 105.566 75.0023 104.569C75.7384 103.565 76.7197 102.783 77.9464 102.223C79.1731 101.656 80.5493 101.372 82.075 101.372C83.6468 101.372 85.0115 101.667 86.1692 102.258C87.3345 102.84 88.2354 103.626 88.8717 104.615C89.5081 105.604 89.8263 106.697 89.8263 107.893C89.8339 109.219 89.4429 110.331 88.6532 111.228C87.8712 112.125 86.8438 112.712 85.5711 112.988V113.172C87.2272 113.402 88.4961 114.015 89.3778 115.012C90.2671 116.001 90.708 117.231 90.7003 118.703C90.7003 120.022 90.3246 121.203 89.5733 122.245C88.8296 123.28 87.8022 124.093 86.4912 124.683C85.1878 125.274 83.6928 125.569 82.006 125.569ZM102.836 125.569C101.303 125.569 99.9303 125.281 98.7189 124.706C97.5075 124.124 96.5453 123.326 95.8323 122.314C95.127 121.302 94.7513 120.145 94.7053 118.841H98.8454C98.9221 119.807 99.3399 120.597 100.099 121.21C100.858 121.816 101.77 122.119 102.836 122.119C103.672 122.119 104.415 121.927 105.067 121.544C105.719 121.16 106.232 120.628 106.608 119.945C106.984 119.263 107.168 118.485 107.16 117.611C107.168 116.721 106.98 115.932 106.597 115.242C106.213 114.552 105.688 114.011 105.021 113.62C104.354 113.221 103.587 113.022 102.721 113.022C102.016 113.014 101.322 113.145 100.639 113.413C99.9571 113.681 99.4166 114.034 99.0179 114.471L95.1653 113.839L96.3958 101.694H110.058V105.259H99.9264L99.2479 111.504H99.3859C99.8229 110.99 100.44 110.565 101.237 110.228C102.035 109.883 102.909 109.71 103.86 109.71C105.286 109.71 106.558 110.047 107.678 110.722C108.797 111.389 109.679 112.309 110.323 113.482C110.967 114.655 111.289 115.997 111.289 117.507C111.289 119.064 110.928 120.451 110.208 121.67C109.495 122.882 108.502 123.836 107.229 124.534C105.964 125.224 104.5 125.569 102.836 125.569ZM123.847 125.695C121.953 125.695 120.328 125.216 118.971 124.258C117.622 123.292 116.583 121.9 115.854 120.083C115.134 118.259 114.773 116.062 114.773 113.494C114.781 110.925 115.145 108.74 115.866 106.938C116.594 105.129 117.633 103.749 118.982 102.798C120.34 101.848 121.961 101.372 123.847 101.372C125.733 101.372 127.355 101.848 128.712 102.798C130.069 103.749 131.108 105.129 131.828 106.938C132.557 108.748 132.921 110.933 132.921 113.494C132.921 116.07 132.557 118.27 131.828 120.095C131.108 121.912 130.069 123.3 128.712 124.258C127.362 125.216 125.741 125.695 123.847 125.695ZM123.847 122.096C125.319 122.096 126.481 121.371 127.332 119.922C128.19 118.466 128.62 116.323 128.62 113.494C128.62 111.623 128.424 110.051 128.033 108.778C127.642 107.506 127.09 106.547 126.377 105.903C125.664 105.252 124.821 104.926 123.847 104.926C122.383 104.926 121.225 105.654 120.374 107.111C119.523 108.56 119.094 110.688 119.086 113.494C119.078 115.372 119.266 116.951 119.65 118.232C120.041 119.512 120.593 120.478 121.306 121.13C122.019 121.774 122.866 122.096 123.847 122.096ZM138.435 125.5C137.738 125.5 137.14 125.255 136.641 124.764C136.143 124.273 135.898 123.675 135.905 122.97C135.898 122.28 136.143 121.69 136.641 121.199C137.14 120.708 137.738 120.463 138.435 120.463C139.11 120.463 139.696 120.708 140.195 121.199C140.701 121.69 140.958 122.28 140.965 122.97C140.958 123.438 140.835 123.863 140.597 124.246C140.367 124.63 140.061 124.936 139.677 125.166C139.302 125.389 138.888 125.5 138.435 125.5ZM145.218 125.247V122.165L153.394 114.149C154.176 113.359 154.828 112.658 155.349 112.045C155.871 111.431 156.262 110.837 156.522 110.262C156.783 109.687 156.913 109.074 156.913 108.422C156.913 107.678 156.745 107.042 156.407 106.513C156.07 105.976 155.606 105.562 155.016 105.271C154.426 104.98 153.755 104.834 153.003 104.834C152.229 104.834 151.55 104.995 150.968 105.317C150.385 105.631 149.933 106.08 149.611 106.662C149.296 107.245 149.139 107.939 149.139 108.744H145.08C145.08 107.249 145.421 105.949 146.103 104.845C146.785 103.741 147.725 102.886 148.921 102.281C150.124 101.675 151.504 101.372 153.061 101.372C154.64 101.372 156.028 101.667 157.224 102.258C158.42 102.848 159.348 103.657 160.007 104.684C160.674 105.712 161.008 106.885 161.008 108.203C161.008 109.085 160.839 109.952 160.502 110.803C160.164 111.654 159.57 112.597 158.719 113.632C157.876 114.667 156.691 115.92 155.165 117.392L151.106 121.521V121.682H161.364V125.247H145.218ZM164.4 120.877V117.484L174.394 101.694H177.223V106.524H175.498L168.77 117.185V117.369H182.72V120.877H164.4ZM175.636 125.247V119.842L175.682 118.324V101.694H179.707V125.247H175.636ZM195.1 125.695C193.207 125.695 191.581 125.216 190.224 124.258C188.875 123.292 187.836 121.9 187.108 120.083C186.387 118.259 186.027 116.062 186.027 113.494C186.034 110.925 186.398 108.74 187.119 106.938C187.847 105.129 188.886 103.749 190.236 102.798C191.593 101.848 193.214 101.372 195.1 101.372C196.986 101.372 198.608 101.848 199.965 102.798C201.322 103.749 202.361 105.129 203.082 106.938C203.81 108.748 204.174 110.933 204.174 113.494C204.174 116.07 203.81 118.27 203.082 120.095C202.361 121.912 201.322 123.3 199.965 124.258C198.616 125.216 196.994 125.695 195.1 125.695ZM195.1 122.096C196.572 122.096 197.734 121.371 198.585 119.922C199.444 118.466 199.873 116.323 199.873 113.494C199.873 111.623 199.677 110.051 199.286 108.778C198.895 107.506 198.343 106.547 197.63 105.903C196.917 105.252 196.074 104.926 195.1 104.926C193.636 104.926 192.478 105.654 191.627 107.111C190.776 108.56 190.347 110.688 190.339 113.494C190.332 115.372 190.519 116.951 190.903 118.232C191.294 119.512 191.846 120.478 192.559 121.13C193.272 121.774 194.119 122.096 195.1 122.096Z" fill="black"/>
<circle cx="326.021" cy="96.5647" r="49.6569" stroke="#EFEFEF" stroke-width="8.63598"/>
<mask id="path-8-inside-1_52_1248" fill="white">
<path d="M283.112 129.308C288.687 136.613 296.034 142.375 304.459 146.046C312.884 149.717 322.106 151.176 331.252 150.286C340.399 149.395 349.166 146.184 356.724 140.956C364.282 135.728 370.381 128.658 374.441 120.414C378.502 112.17 380.39 103.026 379.927 93.8476C379.465 84.6696 376.666 75.7616 371.798 67.9677C366.929 60.1739 360.15 53.7522 352.105 49.3111C344.06 44.8701 335.014 42.5567 325.824 42.5902L325.854 50.8244C333.642 50.796 341.308 52.7565 348.126 56.52C354.944 60.2836 360.688 65.7256 364.814 72.3304C368.94 78.9353 371.311 86.4843 371.704 94.2621C372.096 102.04 370.495 109.789 367.054 116.775C363.613 123.762 358.445 129.754 352.04 134.184C345.635 138.614 338.205 141.335 330.454 142.09C322.703 142.845 314.888 141.608 307.748 138.497C300.609 135.386 294.382 130.504 289.658 124.313L283.112 129.308Z"/>
</mask>
<path d="M283.112 129.308C288.687 136.613 296.034 142.375 304.459 146.046C312.884 149.717 322.106 151.176 331.252 150.286C340.399 149.395 349.166 146.184 356.724 140.956C364.282 135.728 370.381 128.658 374.441 120.414C378.502 112.17 380.39 103.026 379.927 93.8476C379.465 84.6696 376.666 75.7616 371.798 67.9677C366.929 60.1739 360.15 53.7522 352.105 49.3111C344.06 44.8701 335.014 42.5567 325.824 42.5902L325.854 50.8244C333.642 50.796 341.308 52.7565 348.126 56.52C354.944 60.2836 360.688 65.7256 364.814 72.3304C368.94 78.9353 371.311 86.4843 371.704 94.2621C372.096 102.04 370.495 109.789 367.054 116.775C363.613 123.762 358.445 129.754 352.04 134.184C345.635 138.614 338.205 141.335 330.454 142.09C322.703 142.845 314.888 141.608 307.748 138.497C300.609 135.386 294.382 130.504 289.658 124.313L283.112 129.308Z" stroke="#A3DC2F" stroke-width="12.954" stroke-linejoin="bevel" mask="url(#path-8-inside-1_52_1248)"/>
<path d="M313.159 101.862C312.279 101.862 311.502 101.711 310.828 101.408C310.157 101.106 309.632 100.689 309.251 100.157C308.871 99.6254 308.683 99.0202 308.687 98.3414C308.683 97.8098 308.791 97.3212 309.012 96.8755C309.237 96.4257 309.542 96.0516 309.926 95.7531C310.311 95.4505 310.74 95.2583 311.214 95.1765V95.1029C310.589 94.9516 310.088 94.6163 309.711 94.097C309.335 93.5777 309.149 92.9807 309.153 92.306C309.149 91.6641 309.319 91.0916 309.662 90.5887C310.01 90.0816 310.486 89.6829 311.092 89.3926C311.697 89.1023 312.386 88.9571 313.159 88.9571C313.923 88.9571 314.606 89.1043 315.207 89.3988C315.812 89.6891 316.289 90.0877 316.636 90.5948C316.984 91.0977 317.16 91.6682 317.164 92.306C317.16 92.9807 316.967 93.5777 316.587 94.097C316.207 94.6163 315.712 94.9516 315.103 95.1029V95.1765C315.573 95.2583 315.996 95.4505 316.372 95.7531C316.753 96.0516 317.055 96.4257 317.28 96.8755C317.509 97.3212 317.626 97.8098 317.63 98.3414C317.626 99.0202 317.434 99.6254 317.053 100.157C316.673 100.689 316.146 101.106 315.471 101.408C314.8 101.711 314.029 101.862 313.159 101.862ZM313.159 100.31C313.678 100.31 314.128 100.224 314.508 100.053C314.888 99.8768 315.183 99.6335 315.391 99.3228C315.6 99.0079 315.706 98.6399 315.71 98.2187C315.706 97.7812 315.591 97.3948 315.367 97.0595C315.146 96.7242 314.845 96.4605 314.465 96.2683C314.085 96.0761 313.649 95.98 313.159 95.98C312.664 95.98 312.224 96.0761 311.84 96.2683C311.455 96.4605 311.153 96.7242 310.932 97.0595C310.711 97.3948 310.603 97.7812 310.607 98.2187C310.603 98.6399 310.703 99.0079 310.908 99.3228C311.116 99.6335 311.413 99.8768 311.797 100.053C312.181 100.224 312.635 100.31 313.159 100.31ZM313.159 94.465C313.576 94.465 313.946 94.3812 314.269 94.2136C314.592 94.0459 314.845 93.8128 315.029 93.5143C315.217 93.2158 315.313 92.8662 315.318 92.4655C315.313 92.073 315.219 91.7295 315.035 91.4351C314.855 91.1407 314.604 90.9137 314.281 90.7543C313.958 90.5907 313.584 90.5089 313.159 90.5089C312.725 90.5089 312.345 90.5907 312.018 90.7543C311.695 90.9137 311.443 91.1407 311.263 91.4351C311.083 91.7295 310.995 92.073 311 92.4655C310.995 92.8662 311.085 93.2158 311.269 93.5143C311.453 93.8128 311.707 94.0459 312.03 94.2136C312.357 94.3812 312.733 94.465 313.159 94.465ZM323.973 101.862C323.205 101.862 322.514 101.715 321.9 101.42C321.291 101.122 320.804 100.713 320.441 100.194C320.077 99.6744 319.882 99.0815 319.858 98.415H321.698C321.743 98.9548 321.982 99.3984 322.416 99.746C322.849 100.094 323.368 100.267 323.973 100.267C324.456 100.267 324.883 100.157 325.255 99.9361C325.632 99.7112 325.926 99.4025 326.139 99.01C326.355 98.6174 326.464 98.1697 326.464 97.6667C326.464 97.1556 326.353 96.6997 326.132 96.299C325.912 95.8982 325.607 95.5834 325.219 95.3544C324.834 95.1254 324.393 95.0089 323.894 95.0048C323.513 95.0048 323.131 95.0702 322.747 95.2011C322.362 95.3319 322.052 95.5036 321.814 95.7163L320.079 95.4587L320.784 89.1289H327.69V90.7543H322.36L321.962 94.2688H322.035C322.281 94.0316 322.606 93.8333 323.01 93.6738C323.419 93.5143 323.857 93.4346 324.323 93.4346C325.088 93.4346 325.769 93.6166 326.365 93.9805C326.967 94.3444 327.439 94.8412 327.782 95.4709C328.13 96.0965 328.302 96.8162 328.298 97.6299C328.302 98.4436 328.118 99.1694 327.746 99.8073C327.378 100.445 326.866 100.948 326.212 101.316C325.562 101.68 324.816 101.862 323.973 101.862ZM337.095 99.335V98.6726C337.095 98.1983 337.193 97.7649 337.389 97.3723C337.589 96.9757 337.88 96.6588 338.26 96.4216C338.644 96.1804 339.108 96.0597 339.652 96.0597C340.208 96.0597 340.674 96.1783 341.051 96.4155C341.427 96.6527 341.711 96.9695 341.903 97.3662C342.099 97.7628 342.198 98.1983 342.198 98.6726V99.335C342.198 99.8094 342.099 100.245 341.903 100.641C341.707 101.034 341.419 101.351 341.038 101.592C340.662 101.829 340.2 101.948 339.652 101.948C339.1 101.948 338.634 101.829 338.254 101.592C337.873 101.351 337.585 101.034 337.389 100.641C337.193 100.245 337.095 99.8094 337.095 99.335ZM338.524 98.6726V99.335C338.524 99.6867 338.607 100.006 338.775 100.292C338.943 100.578 339.235 100.721 339.652 100.721C340.065 100.721 340.353 100.578 340.517 100.292C340.681 100.006 340.762 99.6867 340.762 99.335V98.6726C340.762 98.321 340.683 98.002 340.523 97.7158C340.368 97.4296 340.077 97.2864 339.652 97.2864C339.243 97.2864 338.953 97.4296 338.781 97.7158C338.61 98.002 338.524 98.321 338.524 98.6726ZM330.777 92.1466V91.4841C330.777 91.0098 330.875 90.5743 331.071 90.1777C331.272 89.7811 331.562 89.4642 331.942 89.227C332.327 88.9899 332.791 88.8713 333.335 88.8713C333.891 88.8713 334.357 88.9899 334.733 89.227C335.109 89.4642 335.394 89.7811 335.586 90.1777C335.778 90.5743 335.874 91.0098 335.874 91.4841V92.1466C335.874 92.6209 335.776 93.0564 335.58 93.453C335.387 93.8455 335.101 94.1624 334.721 94.4037C334.345 94.6409 333.883 94.7594 333.335 94.7594C332.779 94.7594 332.31 94.6409 331.93 94.4037C331.554 94.1624 331.268 93.8455 331.071 93.453C330.875 93.0564 330.777 92.6209 330.777 92.1466ZM332.212 91.4841V92.1466C332.212 92.4982 332.294 92.8172 332.458 93.1034C332.625 93.3896 332.918 93.5327 333.335 93.5327C333.744 93.5327 334.03 93.3896 334.193 93.1034C334.361 92.8172 334.445 92.4982 334.445 92.1466V91.4841C334.445 91.1325 334.365 90.8135 334.206 90.5273C334.046 90.2411 333.756 90.098 333.335 90.098C332.926 90.098 332.635 90.2411 332.464 90.5273C332.296 90.8135 332.212 91.1325 332.212 91.4841ZM331.36 101.69L339.996 89.1289H341.462L332.826 101.69H331.36Z" fill="black"/>
<g filter="url(#filter1_d_52_1248)">
<rect x="27" y="196.958" width="373.506" height="376.745" rx="17.272" fill="white"/>
</g>
<path d="M51.222 266.774V252.642H56.2592C57.354 252.642 58.2625 252.831 58.9847 253.208C59.7116 253.585 60.2544 254.108 60.6132 254.775C60.972 255.437 61.1514 256.203 61.1514 257.072C61.1514 257.937 60.9697 258.699 60.6063 259.356C60.2475 260.01 59.7047 260.518 58.9778 260.881C58.2556 261.245 57.3471 261.426 56.2523 261.426H52.4364V259.591H56.059C56.7491 259.591 57.3103 259.492 57.7427 259.294C58.1797 259.096 58.4994 258.809 58.7018 258.432C58.9042 258.054 59.0054 257.601 59.0054 257.072C59.0054 256.539 58.9019 256.076 58.6949 255.685C58.4925 255.294 58.1728 254.995 57.7358 254.788C57.3034 254.577 56.7353 254.471 56.0314 254.471H53.3542V266.774H51.222ZM58.1981 260.398L61.6896 266.774H59.2607L55.8382 260.398H58.1981ZM68.0154 266.988C66.9711 266.988 66.0718 266.765 65.3174 266.319C64.5676 265.868 63.988 265.235 63.5785 264.421C63.1737 263.602 62.9713 262.643 62.9713 261.544C62.9713 260.458 63.1737 259.501 63.5785 258.673C63.988 257.845 64.5584 257.199 65.2898 256.734C66.0258 256.27 66.886 256.037 67.8705 256.037C68.4685 256.037 69.0481 256.136 69.6093 256.334C70.1705 256.532 70.6742 256.842 71.1205 257.266C71.5667 257.689 71.9186 258.239 72.1762 258.915C72.4338 259.586 72.5626 260.403 72.5626 261.364V262.096H64.1375V260.55H70.5408C70.5408 260.007 70.4304 259.527 70.2096 259.108C69.9888 258.685 69.6783 258.351 69.2781 258.107C68.8825 257.864 68.4179 257.742 67.8843 257.742C67.3047 257.742 66.7986 257.884 66.3662 258.169C65.9384 258.45 65.6072 258.818 65.3726 259.274C65.1426 259.724 65.0276 260.214 65.0276 260.743V261.951C65.0276 262.659 65.1518 263.262 65.4002 263.759C65.6532 264.255 66.0051 264.635 66.4559 264.897C66.9067 265.155 67.4335 265.284 68.0361 265.284C68.4271 265.284 68.7836 265.228 69.1056 265.118C69.4276 265.003 69.7059 264.833 69.9405 264.607C70.1751 264.382 70.3545 264.104 70.4787 263.772L72.4315 264.124C72.2751 264.699 71.9945 265.203 71.5897 265.636C71.1895 266.063 70.6857 266.397 70.0785 266.636C69.4759 266.871 68.7882 266.988 68.0154 266.988ZM82.7939 258.763L80.9239 259.094C80.8457 258.855 80.7215 258.627 80.5513 258.411C80.3857 258.195 80.1603 258.018 79.8751 257.88C79.5899 257.742 79.2334 257.673 78.8056 257.673C78.2213 257.673 77.7337 257.804 77.3427 258.066C76.9517 258.324 76.7562 258.657 76.7562 259.067C76.7562 259.421 76.8873 259.706 77.1495 259.922C77.4117 260.138 77.8349 260.315 78.4191 260.453L80.1028 260.84C81.078 261.065 81.8048 261.413 82.2833 261.882C82.7617 262.351 83.0009 262.961 83.0009 263.71C83.0009 264.345 82.8169 264.911 82.4489 265.408C82.0855 265.9 81.5771 266.286 80.9239 266.567C80.2753 266.848 79.5232 266.988 78.6676 266.988C77.4807 266.988 76.5124 266.735 75.7626 266.229C75.0127 265.718 74.5527 264.994 74.3825 264.055L76.3767 263.752C76.5009 264.272 76.7562 264.665 77.1426 264.932C77.529 265.194 78.0327 265.325 78.6538 265.325C79.33 265.325 79.8705 265.185 80.2753 264.904C80.6801 264.619 80.8825 264.272 80.8825 263.862C80.8825 263.531 80.7583 263.253 80.5099 263.027C80.2661 262.802 79.8912 262.632 79.3852 262.517L77.5911 262.123C76.6021 261.898 75.8707 261.539 75.3969 261.047C74.9276 260.555 74.693 259.931 74.693 259.177C74.693 258.551 74.8678 258.004 75.2175 257.535C75.5671 257.065 76.0501 256.7 76.6665 256.438C77.2829 256.171 77.989 256.037 78.7849 256.037C79.9303 256.037 80.8319 256.286 81.4897 256.783C82.1476 257.275 82.5823 257.935 82.7939 258.763ZM89.8373 266.988C88.793 266.988 87.8937 266.765 87.1393 266.319C86.3895 265.868 85.8098 265.235 85.4004 264.421C84.9956 263.602 84.7932 262.643 84.7932 261.544C84.7932 260.458 84.9956 259.501 85.4004 258.673C85.8098 257.845 86.3803 257.199 87.1117 256.734C87.8477 256.27 88.7079 256.037 89.6924 256.037C90.2904 256.037 90.87 256.136 91.4312 256.334C91.9924 256.532 92.4961 256.842 92.9423 257.266C93.3886 257.689 93.7405 258.239 93.9981 258.915C94.2557 259.586 94.3845 260.403 94.3845 261.364V262.096H85.9593V260.55H92.3627C92.3627 260.007 92.2523 259.527 92.0315 259.108C91.8107 258.685 91.5002 258.351 91.1 258.107C90.7044 257.864 90.2398 257.742 89.7062 257.742C89.1265 257.742 88.6205 257.884 88.1881 258.169C87.7603 258.45 87.4291 258.818 87.1945 259.274C86.9645 259.724 86.8495 260.214 86.8495 260.743V261.951C86.8495 262.659 86.9737 263.262 87.2221 263.759C87.4751 264.255 87.827 264.635 88.2778 264.897C88.7286 265.155 89.2553 265.284 89.858 265.284C90.249 265.284 90.6055 265.228 90.9275 265.118C91.2495 265.003 91.5278 264.833 91.7624 264.607C91.997 264.382 92.1764 264.104 92.3006 263.772L94.2534 264.124C94.097 264.699 93.8164 265.203 93.4116 265.636C93.0113 266.063 92.5076 266.397 91.9004 266.636C91.2978 266.871 90.6101 266.988 89.8373 266.988ZM96.6736 266.774V256.175H98.6678V257.859H98.7782C98.9714 257.289 99.3118 256.84 99.7994 256.513C100.292 256.182 100.848 256.017 101.469 256.017C101.598 256.017 101.75 256.021 101.925 256.03C102.104 256.04 102.244 256.051 102.346 256.065V258.038C102.263 258.015 102.116 257.99 101.904 257.962C101.692 257.93 101.481 257.914 101.269 257.914C100.782 257.914 100.347 258.018 99.965 258.225C99.5878 258.427 99.2888 258.71 99.068 259.073C98.8472 259.432 98.7368 259.842 98.7368 260.302V266.774H96.6736ZM113.52 256.175L109.677 266.774H107.469L103.619 256.175H105.834L108.518 264.331H108.628L111.306 256.175H113.52ZM118.24 267.009C117.569 267.009 116.961 266.884 116.419 266.636C115.876 266.383 115.446 266.017 115.128 265.539C114.815 265.06 114.659 264.474 114.659 263.779C114.659 263.181 114.774 262.689 115.004 262.303C115.234 261.916 115.545 261.61 115.936 261.385C116.327 261.16 116.764 260.989 117.247 260.874C117.73 260.759 118.222 260.672 118.723 260.612C119.358 260.539 119.873 260.479 120.269 260.433C120.664 260.382 120.952 260.302 121.131 260.191C121.311 260.081 121.4 259.901 121.4 259.653V259.605C121.4 259.002 121.23 258.535 120.89 258.204C120.554 257.873 120.053 257.707 119.386 257.707C118.691 257.707 118.144 257.861 117.743 258.169C117.348 258.473 117.074 258.811 116.922 259.184L114.983 258.742C115.213 258.098 115.549 257.578 115.991 257.183C116.437 256.783 116.95 256.493 117.529 256.313C118.109 256.129 118.719 256.037 119.358 256.037C119.781 256.037 120.23 256.088 120.704 256.189C121.182 256.286 121.628 256.465 122.042 256.727C122.461 256.99 122.804 257.364 123.07 257.852C123.337 258.335 123.471 258.963 123.471 259.736V266.774H121.456V265.325H121.373C121.239 265.592 121.039 265.854 120.773 266.112C120.506 266.369 120.163 266.583 119.744 266.753C119.326 266.924 118.824 267.009 118.24 267.009ZM118.689 265.353C119.259 265.353 119.747 265.24 120.152 265.014C120.561 264.789 120.871 264.495 121.083 264.131C121.299 263.763 121.407 263.37 121.407 262.951V261.585C121.334 261.659 121.191 261.728 120.98 261.792C120.773 261.852 120.536 261.905 120.269 261.951C120.002 261.992 119.742 262.031 119.489 262.068C119.236 262.1 119.025 262.128 118.854 262.151C118.454 262.202 118.088 262.287 117.757 262.406C117.431 262.526 117.168 262.698 116.971 262.924C116.777 263.145 116.681 263.439 116.681 263.807C116.681 264.318 116.869 264.704 117.247 264.966C117.624 265.224 118.105 265.353 118.689 265.353ZM131.166 256.175V257.831H125.377V256.175H131.166ZM126.929 253.636H128.992V263.662C128.992 264.062 129.052 264.364 129.172 264.566C129.291 264.764 129.446 264.899 129.634 264.973C129.827 265.042 130.037 265.077 130.262 265.077C130.428 265.077 130.573 265.065 130.697 265.042C130.821 265.019 130.918 265.001 130.987 264.987L131.359 266.691C131.24 266.737 131.069 266.783 130.849 266.829C130.628 266.88 130.352 266.907 130.021 266.912C129.478 266.921 128.972 266.825 128.503 266.622C128.033 266.42 127.654 266.107 127.364 265.684C127.074 265.261 126.929 264.729 126.929 264.09V253.636ZM133.448 266.774V256.175H135.511V266.774H133.448ZM134.49 254.54C134.131 254.54 133.823 254.42 133.566 254.181C133.313 253.937 133.186 253.648 133.186 253.312C133.186 252.971 133.313 252.682 133.566 252.442C133.823 252.199 134.131 252.077 134.49 252.077C134.849 252.077 135.155 252.199 135.408 252.442C135.666 252.682 135.794 252.971 135.794 253.312C135.794 253.648 135.666 253.937 135.408 254.181C135.155 254.42 134.849 254.54 134.49 254.54ZM142.751 266.988C141.758 266.988 140.891 266.76 140.15 266.305C139.409 265.849 138.834 265.212 138.425 264.393C138.016 263.575 137.811 262.618 137.811 261.523C137.811 260.424 138.016 259.462 138.425 258.639C138.834 257.815 139.409 257.176 140.15 256.72C140.891 256.265 141.758 256.037 142.751 256.037C143.745 256.037 144.612 256.265 145.353 256.72C146.093 257.176 146.668 257.815 147.078 258.639C147.487 259.462 147.692 260.424 147.692 261.523C147.692 262.618 147.487 263.575 147.078 264.393C146.668 265.212 146.093 265.849 145.353 266.305C144.612 266.76 143.745 266.988 142.751 266.988ZM142.758 265.256C143.402 265.256 143.936 265.086 144.359 264.745C144.782 264.405 145.095 263.952 145.298 263.386C145.505 262.82 145.608 262.197 145.608 261.516C145.608 260.84 145.505 260.219 145.298 259.653C145.095 259.083 144.782 258.625 144.359 258.28C143.936 257.935 143.402 257.762 142.758 257.762C142.11 257.762 141.572 257.935 141.144 258.28C140.72 258.625 140.405 259.083 140.198 259.653C139.996 260.219 139.895 260.84 139.895 261.516C139.895 262.197 139.996 262.82 140.198 263.386C140.405 263.952 140.72 264.405 141.144 264.745C141.572 265.086 142.11 265.256 142.758 265.256ZM152.058 260.481V266.774H149.995V256.175H151.975V257.9H152.106C152.35 257.339 152.732 256.888 153.252 256.548C153.776 256.208 154.436 256.037 155.232 256.037C155.954 256.037 156.587 256.189 157.13 256.493C157.673 256.792 158.093 257.238 158.392 257.831C158.691 258.425 158.841 259.159 158.841 260.033V266.774H156.778V260.281C156.778 259.513 156.578 258.912 156.177 258.48C155.777 258.043 155.228 257.824 154.528 257.824C154.05 257.824 153.624 257.928 153.252 258.135C152.884 258.342 152.592 258.646 152.375 259.046C152.164 259.441 152.058 259.92 152.058 260.481ZM169.55 258.763L167.68 259.094C167.602 258.855 167.478 258.627 167.308 258.411C167.142 258.195 166.917 258.018 166.631 257.88C166.346 257.742 165.99 257.673 165.562 257.673C164.978 257.673 164.49 257.804 164.099 258.066C163.708 258.324 163.512 258.657 163.512 259.067C163.512 259.421 163.644 259.706 163.906 259.922C164.168 260.138 164.591 260.315 165.175 260.453L166.859 260.84C167.834 261.065 168.561 261.413 169.039 261.882C169.518 262.351 169.757 262.961 169.757 263.71C169.757 264.345 169.573 264.911 169.205 265.408C168.842 265.9 168.333 266.286 167.68 266.567C167.032 266.848 166.279 266.988 165.424 266.988C164.237 266.988 163.269 266.735 162.519 266.229C161.769 265.718 161.309 264.994 161.139 264.055L163.133 263.752C163.257 264.272 163.512 264.665 163.899 264.932C164.285 265.194 164.789 265.325 165.41 265.325C166.086 265.325 166.627 265.185 167.032 264.904C167.436 264.619 167.639 264.272 167.639 263.862C167.639 263.531 167.515 263.253 167.266 263.027C167.022 262.802 166.647 262.632 166.141 262.517L164.347 262.123C163.358 261.898 162.627 261.539 162.153 261.047C161.684 260.555 161.449 259.931 161.449 259.177C161.449 258.551 161.624 258.004 161.974 257.535C162.323 257.065 162.806 256.7 163.423 256.438C164.039 256.171 164.745 256.037 165.541 256.037C166.687 256.037 167.588 256.286 168.246 256.783C168.904 257.275 169.338 257.935 169.55 258.763Z" fill="black"/>
<circle cx="56.1464" cy="219.628" r="5.39749" fill="#FF0606"/>
<circle cx="75.0376" cy="219.628" r="5.39749" fill="#30C1FF"/>
<circle cx="93.9288" cy="219.628" r="5.39749" fill="#A3DC2F"/>
<line x1="52.908" y1="297.891" x2="379.996" y2="297.891" stroke="#D8D8D8" stroke-width="1.0795"/>
<rect x="51.5282" y="329.736" width="326.008" height="10.795" rx="5.39749" fill="#EFEFEF"/>
<rect x="51.5281" y="351.326" width="326.008" height="10.795" rx="5.39749" fill="#EFEFEF"/>
<rect x="51.5281" y="372.916" width="214.82" height="10.795" rx="5.39749" fill="#EFEFEF"/>
<path d="M57.699 488.071V473.94H59.8312V486.236H66.2346V488.071H57.699ZM71.5857 488.306C70.914 488.306 70.3068 488.182 69.764 487.933C69.2212 487.68 68.7911 487.314 68.4737 486.836C68.1609 486.358 68.0045 485.771 68.0045 485.076C68.0045 484.478 68.1195 483.986 68.3495 483.6C68.5795 483.213 68.89 482.908 69.281 482.682C69.672 482.457 70.109 482.286 70.592 482.171C71.0751 482.056 71.5673 481.969 72.0687 481.909C72.7035 481.836 73.2187 481.776 73.6143 481.73C74.0099 481.679 74.2974 481.599 74.4769 481.488C74.6563 481.378 74.746 481.199 74.746 480.95V480.902C74.746 480.299 74.5758 479.832 74.2353 479.501C73.8995 479.17 73.3981 479.004 72.7311 479.004C72.0365 479.004 71.4891 479.158 71.0889 479.467C70.6932 479.77 70.4195 480.108 70.2677 480.481L68.3288 480.039C68.5588 479.395 68.8946 478.876 69.3362 478.48C69.7824 478.08 70.2953 477.79 70.8749 477.61C71.4546 477.426 72.0641 477.334 72.7035 477.334C73.1267 477.334 73.5752 477.385 74.049 477.486C74.5275 477.583 74.9737 477.762 75.3877 478.024C75.8063 478.287 76.149 478.662 76.4158 479.149C76.6826 479.632 76.816 480.26 76.816 481.033V488.071H74.8012V486.622H74.7184C74.585 486.889 74.3848 487.151 74.118 487.409C73.8512 487.666 73.5085 487.88 73.0899 488.05C72.6713 488.221 72.1699 488.306 71.5857 488.306ZM72.0342 486.65C72.6046 486.65 73.0922 486.537 73.497 486.312C73.9064 486.086 74.2169 485.792 74.4285 485.428C74.6448 485.06 74.7529 484.667 74.7529 484.248V482.882C74.6793 482.956 74.5367 483.025 74.325 483.089C74.118 483.149 73.8811 483.202 73.6143 483.248C73.3475 483.289 73.0876 483.328 72.8346 483.365C72.5816 483.397 72.37 483.425 72.1998 483.448C71.7996 483.499 71.4339 483.584 71.1027 483.703C70.776 483.823 70.5138 483.995 70.316 484.221C70.1228 484.442 70.0262 484.736 70.0262 485.104C70.0262 485.615 70.2148 486.001 70.592 486.263C70.9692 486.521 71.45 486.65 72.0342 486.65ZM87.5062 480.06L85.6362 480.391C85.558 480.152 85.4338 479.924 85.2636 479.708C85.098 479.492 84.8726 479.315 84.5874 479.177C84.3022 479.039 83.9456 478.97 83.5178 478.97C82.9336 478.97 82.446 479.101 82.055 479.363C81.664 479.621 81.4685 479.954 81.4685 480.364C81.4685 480.718 81.5996 481.003 81.8618 481.219C82.124 481.435 82.5472 481.613 83.1314 481.751L84.8151 482.137C85.7903 482.362 86.5171 482.71 86.9955 483.179C87.474 483.648 87.7132 484.258 87.7132 485.007C87.7132 485.642 87.5292 486.208 87.1611 486.705C86.7977 487.197 86.2894 487.584 85.6362 487.864C84.9876 488.145 84.2355 488.285 83.3798 488.285C82.193 488.285 81.2247 488.032 80.4748 487.526C79.725 487.015 79.265 486.291 79.0948 485.352L81.089 485.049C81.2132 485.569 81.4685 485.962 81.8549 486.229C82.2413 486.491 82.745 486.622 83.366 486.622C84.0423 486.622 84.5828 486.482 84.9876 486.201C85.3924 485.916 85.5948 485.569 85.5948 485.159C85.5948 484.828 85.4706 484.55 85.2222 484.324C84.9784 484.099 84.6035 483.929 84.0975 483.814L82.3034 483.42C81.3144 483.195 80.583 482.836 80.1091 482.344C79.6399 481.852 79.4053 481.228 79.4053 480.474C79.4053 479.848 79.5801 479.301 79.9297 478.832C80.2793 478.363 80.7624 477.997 81.3788 477.735C81.9952 477.468 82.7013 477.334 83.4971 477.334C84.6426 477.334 85.5442 477.583 86.202 478.08C86.8598 478.572 87.2945 479.232 87.5062 480.06ZM94.929 477.472V479.129H89.1398V477.472H94.929ZM90.6923 474.933H92.7555V484.959C92.7555 485.359 92.8153 485.661 92.9349 485.863C93.0545 486.061 93.2086 486.197 93.3972 486.27C93.5904 486.339 93.7997 486.374 94.0251 486.374C94.1907 486.374 94.3356 486.362 94.4598 486.339C94.584 486.316 94.6806 486.298 94.7496 486.284L95.1222 487.988C95.0026 488.034 94.8324 488.08 94.6116 488.126C94.3908 488.177 94.1148 488.205 93.7836 488.209C93.2408 488.218 92.7348 488.122 92.2656 487.919C91.7964 487.717 91.4168 487.404 91.127 486.981C90.8372 486.558 90.6923 486.026 90.6923 485.387V474.933ZM102.519 473.94H105.107L109.606 484.925H109.771L114.27 473.94H116.858V488.071H114.829V477.845H114.698L110.53 488.05H108.847L104.679 477.838H104.548V488.071H102.519V473.94ZM119.792 488.071V477.472H121.855V488.071H119.792ZM120.834 475.837C120.475 475.837 120.167 475.718 119.909 475.478C119.656 475.234 119.53 474.945 119.53 474.609C119.53 474.268 119.656 473.979 119.909 473.739C120.167 473.496 120.475 473.374 120.834 473.374C121.193 473.374 121.499 473.496 121.752 473.739C122.009 473.979 122.138 474.268 122.138 474.609C122.138 474.945 122.009 475.234 121.752 475.478C121.499 475.718 121.193 475.837 120.834 475.837ZM126.694 481.778V488.071H124.631V477.472H126.611V479.198H126.742C126.986 478.636 127.368 478.185 127.888 477.845C128.412 477.505 129.072 477.334 129.868 477.334C130.59 477.334 131.223 477.486 131.766 477.79C132.309 478.089 132.729 478.535 133.028 479.129C133.328 479.722 133.477 480.456 133.477 481.33V488.071H131.414V481.578C131.414 480.81 131.214 480.21 130.814 479.777C130.413 479.34 129.864 479.122 129.164 479.122C128.686 479.122 128.26 479.225 127.888 479.432C127.52 479.639 127.228 479.943 127.012 480.343C126.8 480.739 126.694 481.217 126.694 481.778ZM142.958 483.676V477.472H145.028V488.071H142.999V486.236H142.889C142.645 486.802 142.254 487.273 141.716 487.65C141.182 488.023 140.518 488.209 139.722 488.209C139.041 488.209 138.438 488.06 137.914 487.761C137.394 487.457 136.985 487.009 136.686 486.415C136.391 485.822 136.244 485.088 136.244 484.214V477.472H138.307V483.966C138.307 484.688 138.507 485.263 138.907 485.691C139.308 486.118 139.827 486.332 140.467 486.332C140.853 486.332 141.237 486.236 141.619 486.043C142.006 485.849 142.325 485.557 142.578 485.166C142.836 484.775 142.962 484.278 142.958 483.676ZM152.748 477.472V479.129H146.958V477.472H152.748ZM148.511 474.933H150.574V484.959C150.574 485.359 150.634 485.661 150.753 485.863C150.873 486.061 151.027 486.197 151.216 486.27C151.409 486.339 151.618 486.374 151.844 486.374C152.009 486.374 152.154 486.362 152.278 486.339C152.403 486.316 152.499 486.298 152.568 486.284L152.941 487.988C152.821 488.034 152.651 488.08 152.43 488.126C152.209 488.177 151.933 488.205 151.602 488.209C151.059 488.218 150.553 488.122 150.084 487.919C149.615 487.717 149.235 487.404 148.946 486.981C148.656 486.558 148.511 486.026 148.511 485.387V474.933ZM159.484 488.285C158.44 488.285 157.54 488.062 156.786 487.616C156.036 487.165 155.456 486.532 155.047 485.718C154.642 484.899 154.44 483.94 154.44 482.841C154.44 481.755 154.642 480.798 155.047 479.97C155.456 479.142 156.027 478.496 156.758 478.031C157.494 477.567 158.355 477.334 159.339 477.334C159.937 477.334 160.517 477.433 161.078 477.631C161.639 477.829 162.143 478.139 162.589 478.563C163.035 478.986 163.387 479.536 163.645 480.212C163.902 480.883 164.031 481.7 164.031 482.661V483.393H155.606V481.847H162.009C162.009 481.304 161.899 480.824 161.678 480.405C161.457 479.982 161.147 479.648 160.747 479.405C160.351 479.161 159.886 479.039 159.353 479.039C158.773 479.039 158.267 479.181 157.835 479.467C157.407 479.747 157.076 480.115 156.841 480.571C156.611 481.021 156.496 481.511 156.496 482.04V483.248C156.496 483.956 156.62 484.559 156.869 485.056C157.122 485.553 157.474 485.932 157.924 486.194C158.375 486.452 158.902 486.581 159.505 486.581C159.896 486.581 160.252 486.526 160.574 486.415C160.896 486.3 161.174 486.13 161.409 485.905C161.644 485.679 161.823 485.401 161.947 485.07L163.9 485.421C163.744 485.997 163.463 486.5 163.058 486.933C162.658 487.36 162.154 487.694 161.547 487.933C160.944 488.168 160.257 488.285 159.484 488.285ZM171.628 488.071V473.94H176.665C177.765 473.94 178.676 474.14 179.398 474.54C180.12 474.94 180.661 475.488 181.019 476.182C181.378 476.872 181.558 477.65 181.558 478.514C181.558 479.384 181.376 480.166 181.012 480.86C180.654 481.55 180.111 482.098 179.384 482.503C178.662 482.903 177.753 483.103 176.658 483.103H173.195V481.295H176.465C177.16 481.295 177.723 481.176 178.156 480.936C178.588 480.693 178.906 480.361 179.108 479.943C179.31 479.524 179.412 479.048 179.412 478.514C179.412 477.981 179.31 477.507 179.108 477.093C178.906 476.679 178.586 476.355 178.149 476.12C177.716 475.885 177.146 475.768 176.438 475.768H173.76V488.071H171.628ZM183.892 488.071V477.472H185.886V479.156H185.996C186.189 478.586 186.53 478.137 187.017 477.811C187.51 477.479 188.066 477.314 188.687 477.314C188.816 477.314 188.968 477.318 189.143 477.328C189.322 477.337 189.462 477.348 189.564 477.362V479.336C189.481 479.313 189.334 479.287 189.122 479.26C188.91 479.227 188.699 479.211 188.487 479.211C188 479.211 187.565 479.315 187.183 479.522C186.806 479.724 186.507 480.007 186.286 480.371C186.065 480.729 185.955 481.139 185.955 481.599V488.071H183.892ZM191.349 488.071V477.472H193.412V488.071H191.349ZM192.391 475.837C192.032 475.837 191.724 475.718 191.466 475.478C191.213 475.234 191.087 474.945 191.087 474.609C191.087 474.268 191.213 473.979 191.466 473.739C191.724 473.496 192.032 473.374 192.391 473.374C192.75 473.374 193.056 473.496 193.309 473.739C193.566 473.979 193.695 474.268 193.695 474.609C193.695 474.945 193.566 475.234 193.309 475.478C193.056 475.718 192.75 475.837 192.391 475.837ZM200.652 488.285C199.626 488.285 198.743 488.053 198.003 487.588C197.266 487.119 196.701 486.473 196.305 485.649C195.909 484.826 195.712 483.883 195.712 482.82C195.712 481.744 195.914 480.794 196.319 479.97C196.724 479.142 197.294 478.496 198.03 478.031C198.766 477.567 199.633 477.334 200.631 477.334C201.437 477.334 202.154 477.484 202.784 477.783C203.415 478.077 203.923 478.491 204.309 479.025C204.7 479.559 204.933 480.182 205.006 480.895H202.998C202.888 480.398 202.635 479.97 202.239 479.612C201.848 479.253 201.324 479.073 200.666 479.073C200.091 479.073 199.587 479.225 199.155 479.529C198.727 479.828 198.394 480.256 198.154 480.812C197.915 481.364 197.795 482.017 197.795 482.772C197.795 483.545 197.913 484.212 198.147 484.773C198.382 485.334 198.713 485.769 199.141 486.077C199.573 486.385 200.082 486.539 200.666 486.539C201.057 486.539 201.411 486.468 201.729 486.325C202.051 486.178 202.32 485.969 202.536 485.697C202.757 485.426 202.911 485.099 202.998 484.718H205.006C204.933 485.403 204.709 486.015 204.337 486.553C203.964 487.091 203.465 487.515 202.84 487.823C202.219 488.131 201.489 488.285 200.652 488.285ZM211.78 488.285C210.736 488.285 209.837 488.062 209.083 487.616C208.333 487.165 207.753 486.532 207.344 485.718C206.939 484.899 206.736 483.94 206.736 482.841C206.736 481.755 206.939 480.798 207.344 479.97C207.753 479.142 208.323 478.496 209.055 478.031C209.791 477.567 210.651 477.334 211.636 477.334C212.234 477.334 212.813 477.433 213.374 477.631C213.936 477.829 214.439 478.139 214.886 478.563C215.332 478.986 215.684 479.536 215.941 480.212C216.199 480.883 216.328 481.7 216.328 482.661V483.393H207.903V481.847H214.306C214.306 481.304 214.196 480.824 213.975 480.405C213.754 479.982 213.443 479.648 213.043 479.405C212.648 479.161 212.183 479.039 211.649 479.039C211.07 479.039 210.564 479.181 210.131 479.467C209.704 479.747 209.372 480.115 209.138 480.571C208.908 481.021 208.793 481.511 208.793 482.04V483.248C208.793 483.956 208.917 484.559 209.165 485.056C209.418 485.553 209.77 485.932 210.221 486.194C210.672 486.452 211.199 486.581 211.801 486.581C212.192 486.581 212.549 486.526 212.871 486.415C213.193 486.3 213.471 486.13 213.706 485.905C213.94 485.679 214.12 485.401 214.244 485.07L216.197 485.421C216.04 485.997 215.76 486.5 215.355 486.933C214.955 487.36 214.451 487.694 213.844 487.933C213.241 488.168 212.553 488.285 211.78 488.285ZM226.559 480.06L224.689 480.391C224.611 480.152 224.487 479.924 224.316 479.708C224.151 479.492 223.925 479.315 223.64 479.177C223.355 479.039 222.998 478.97 222.571 478.97C221.986 478.97 221.499 479.101 221.108 479.363C220.717 479.621 220.521 479.954 220.521 480.364C220.521 480.718 220.652 481.003 220.915 481.219C221.177 481.435 221.6 481.613 222.184 481.751L223.868 482.137C224.843 482.362 225.57 482.71 226.048 483.179C226.527 483.648 226.766 484.258 226.766 485.007C226.766 485.642 226.582 486.208 226.214 486.705C225.851 487.197 225.342 487.584 224.689 487.864C224.04 488.145 223.288 488.285 222.433 488.285C221.246 488.285 220.278 488.032 219.528 487.526C218.778 487.015 218.318 486.291 218.148 485.352L220.142 485.049C220.266 485.569 220.521 485.962 220.908 486.229C221.294 486.491 221.798 486.622 222.419 486.622C223.095 486.622 223.636 486.482 224.04 486.201C224.445 485.916 224.648 485.569 224.648 485.159C224.648 484.828 224.523 484.55 224.275 484.324C224.031 484.099 223.656 483.929 223.15 483.814L221.356 483.42C220.367 483.195 219.636 482.836 219.162 482.344C218.693 481.852 218.458 481.228 218.458 480.474C218.458 479.848 218.633 479.301 218.983 478.832C219.332 478.363 219.815 477.997 220.432 477.735C221.048 477.468 221.754 477.334 222.55 477.334C223.695 477.334 224.597 477.583 225.255 478.08C225.913 478.572 226.347 479.232 226.559 480.06Z" fill="black"/>
<rect x="58.3054" y="513.251" width="196.469" height="10.795" rx="5.39749" fill="#EFEFEF"/>
<rect x="58.3054" y="534.841" width="106.87" height="10.795" rx="5.39749" fill="#EFEFEF"/>
<rect x="51.5282" y="399.824" width="196.469" height="10.795" rx="5.39749" fill="#EFEFEF"/>
<rect x="51.5281" y="421.414" width="106.87" height="10.795" rx="5.39749" fill="#EFEFEF"/>
<rect x="342.213" y="477.628" width="37.7824" height="21.59" rx="10.795" fill="#A3DC2F"/>
<circle cx="369.201" cy="488.423" r="8.63598" fill="white"/>
<rect width="37.7824" height="21.59" rx="10.795" transform="matrix(-1 0 0 1 379.996 524.046)" fill="#D8D8D8"/>
<circle cx="8.63598" cy="8.63598" r="8.63598" transform="matrix(-1 0 0 1 361.644 526.205)" fill="white"/>
<g filter="url(#filter2_d_52_1248)">
<rect x="427.494" y="109.519" width="373.506" height="376.745" rx="17.272" fill="white"/>
</g>
<path d="M451.716 182.573V168.442H456.891C457.894 168.442 458.724 168.607 459.382 168.938C460.04 169.265 460.532 169.709 460.858 170.27C461.185 170.827 461.348 171.455 461.348 172.154C461.348 172.743 461.24 173.24 461.024 173.644C460.808 174.045 460.518 174.367 460.155 174.61C459.796 174.85 459.4 175.024 458.968 175.135V175.273C459.437 175.296 459.895 175.448 460.341 175.728C460.792 176.004 461.164 176.398 461.459 176.908C461.753 177.419 461.9 178.04 461.9 178.771C461.9 179.493 461.73 180.142 461.39 180.717C461.054 181.288 460.534 181.741 459.83 182.076C459.127 182.408 458.227 182.573 457.132 182.573H451.716ZM453.848 180.745H456.925C457.947 180.745 458.678 180.547 459.12 180.151C459.561 179.756 459.782 179.261 459.782 178.668C459.782 178.222 459.669 177.812 459.444 177.439C459.219 177.067 458.897 176.77 458.478 176.549C458.064 176.329 457.572 176.218 457.001 176.218H453.848V180.745ZM453.848 174.555H456.705C457.183 174.555 457.613 174.463 457.995 174.279C458.381 174.095 458.687 173.838 458.913 173.506C459.143 173.171 459.258 172.775 459.258 172.32C459.258 171.735 459.053 171.245 458.643 170.85C458.234 170.454 457.606 170.256 456.76 170.256H453.848V174.555ZM467.348 182.808C466.676 182.808 466.069 182.684 465.526 182.435C464.984 182.182 464.554 181.817 464.236 181.338C463.923 180.86 463.767 180.273 463.767 179.579C463.767 178.981 463.882 178.488 464.112 178.102C464.342 177.716 464.652 177.41 465.043 177.184C465.434 176.959 465.871 176.789 466.354 176.674C466.837 176.559 467.33 176.471 467.831 176.411C468.466 176.338 468.981 176.278 469.377 176.232C469.772 176.181 470.06 176.101 470.239 175.99C470.419 175.88 470.508 175.701 470.508 175.452V175.404C470.508 174.801 470.338 174.334 469.998 174.003C469.662 173.672 469.161 173.506 468.494 173.506C467.799 173.506 467.251 173.66 466.851 173.969C466.456 174.272 466.182 174.61 466.03 174.983L464.091 174.541C464.321 173.897 464.657 173.378 465.099 172.982C465.545 172.582 466.058 172.292 466.637 172.113C467.217 171.929 467.827 171.837 468.466 171.837C468.889 171.837 469.338 171.887 469.811 171.988C470.29 172.085 470.736 172.264 471.15 172.527C471.569 172.789 471.911 173.164 472.178 173.651C472.445 174.134 472.578 174.762 472.578 175.535V182.573H470.564V181.124H470.481C470.347 181.391 470.147 181.653 469.88 181.911C469.614 182.168 469.271 182.382 468.852 182.553C468.434 182.723 467.932 182.808 467.348 182.808ZM467.797 181.152C468.367 181.152 468.855 181.039 469.259 180.814C469.669 180.588 469.979 180.294 470.191 179.93C470.407 179.562 470.515 179.169 470.515 178.751V177.384C470.442 177.458 470.299 177.527 470.087 177.591C469.88 177.651 469.644 177.704 469.377 177.75C469.11 177.791 468.85 177.831 468.597 177.867C468.344 177.9 468.132 177.927 467.962 177.95C467.562 178.001 467.196 178.086 466.865 178.205C466.538 178.325 466.276 178.498 466.078 178.723C465.885 178.944 465.789 179.238 465.789 179.606C465.789 180.117 465.977 180.503 466.354 180.765C466.732 181.023 467.212 181.152 467.797 181.152ZM483.269 174.562L481.399 174.893C481.32 174.654 481.196 174.426 481.026 174.21C480.86 173.994 480.635 173.817 480.35 173.679C480.065 173.541 479.708 173.472 479.28 173.472C478.696 173.472 478.208 173.603 477.817 173.865C477.426 174.123 477.231 174.456 477.231 174.866C477.231 175.22 477.362 175.505 477.624 175.721C477.886 175.938 478.31 176.115 478.894 176.253L480.578 176.639C481.553 176.864 482.28 177.212 482.758 177.681C483.236 178.15 483.476 178.76 483.476 179.51C483.476 180.144 483.292 180.71 482.924 181.207C482.56 181.699 482.052 182.086 481.399 182.366C480.75 182.647 479.998 182.787 479.142 182.787C477.955 182.787 476.987 182.534 476.237 182.028C475.487 181.518 475.027 180.793 474.857 179.855L476.851 179.551C476.976 180.071 477.231 180.464 477.617 180.731C478.004 180.993 478.507 181.124 479.128 181.124C479.805 181.124 480.345 180.984 480.75 180.703C481.155 180.418 481.357 180.071 481.357 179.661C481.357 179.33 481.233 179.052 480.985 178.826C480.741 178.601 480.366 178.431 479.86 178.316L478.066 177.923C477.077 177.697 476.345 177.338 475.872 176.846C475.402 176.354 475.168 175.731 475.168 174.976C475.168 174.351 475.343 173.803 475.692 173.334C476.042 172.865 476.525 172.499 477.141 172.237C477.758 171.97 478.464 171.837 479.26 171.837C480.405 171.837 481.307 172.085 481.964 172.582C482.622 173.074 483.057 173.734 483.269 174.562ZM490.312 182.787C489.268 182.787 488.368 182.564 487.614 182.118C486.864 181.667 486.285 181.034 485.875 180.22C485.47 179.401 485.268 178.442 485.268 177.343C485.268 176.257 485.47 175.3 485.875 174.472C486.285 173.644 486.855 172.998 487.586 172.533C488.322 172.069 489.183 171.837 490.167 171.837C490.765 171.837 491.345 171.935 491.906 172.133C492.467 172.331 492.971 172.642 493.417 173.065C493.863 173.488 494.215 174.038 494.473 174.714C494.73 175.386 494.859 176.202 494.859 177.163V177.895H486.434V176.349H492.837C492.837 175.806 492.727 175.326 492.506 174.907C492.285 174.484 491.975 174.15 491.575 173.907C491.179 173.663 490.714 173.541 490.181 173.541C489.601 173.541 489.095 173.683 488.663 173.969C488.235 174.249 487.904 174.617 487.669 175.073C487.439 175.524 487.324 176.013 487.324 176.542V177.75C487.324 178.458 487.448 179.061 487.697 179.558C487.95 180.055 488.302 180.434 488.753 180.696C489.203 180.954 489.73 181.083 490.333 181.083C490.724 181.083 491.08 181.028 491.402 180.917C491.724 180.802 492.003 180.632 492.237 180.407C492.472 180.181 492.651 179.903 492.775 179.572L494.728 179.924C494.572 180.499 494.291 181.002 493.886 181.435C493.486 181.863 492.982 182.196 492.375 182.435C491.773 182.67 491.085 182.787 490.312 182.787ZM502.456 182.573V168.442H507.493C508.593 168.442 509.504 168.642 510.226 169.042C510.948 169.442 511.489 169.99 511.847 170.684C512.206 171.374 512.386 172.152 512.386 173.016C512.386 173.886 512.204 174.668 511.841 175.363C511.482 176.053 510.939 176.6 510.212 177.005C509.49 177.405 508.581 177.605 507.487 177.605H504.023V175.797H507.293C507.988 175.797 508.551 175.678 508.984 175.438C509.416 175.195 509.734 174.863 509.936 174.445C510.139 174.026 510.24 173.55 510.24 173.016C510.24 172.483 510.139 172.009 509.936 171.595C509.734 171.181 509.414 170.857 508.977 170.622C508.545 170.387 507.974 170.27 507.266 170.27H504.588V182.573H502.456ZM514.72 182.573V171.975H516.714V173.658H516.824C517.017 173.088 517.358 172.639 517.845 172.313C518.338 171.981 518.894 171.816 519.515 171.816C519.644 171.816 519.796 171.82 519.971 171.83C520.15 171.839 520.29 171.85 520.392 171.864V173.838C520.309 173.815 520.162 173.789 519.95 173.762C519.738 173.729 519.527 173.713 519.315 173.713C518.828 173.713 518.393 173.817 518.011 174.024C517.634 174.226 517.335 174.509 517.114 174.873C516.893 175.231 516.783 175.641 516.783 176.101V182.573H514.72ZM522.177 182.573V171.975H524.24V182.573H522.177ZM523.219 170.339C522.86 170.339 522.552 170.22 522.294 169.98C522.041 169.737 521.915 169.447 521.915 169.111C521.915 168.771 522.041 168.481 522.294 168.242C522.552 167.998 522.86 167.876 523.219 167.876C523.578 167.876 523.884 167.998 524.137 168.242C524.394 168.481 524.523 168.771 524.523 169.111C524.523 169.447 524.394 169.737 524.137 169.98C523.884 170.22 523.578 170.339 523.219 170.339ZM531.48 182.787C530.454 182.787 529.571 182.555 528.831 182.09C528.095 181.621 527.529 180.975 527.133 180.151C526.738 179.328 526.54 178.385 526.54 177.322C526.54 176.246 526.742 175.296 527.147 174.472C527.552 173.644 528.122 172.998 528.858 172.533C529.594 172.069 530.461 171.837 531.46 171.837C532.265 171.837 532.982 171.986 533.612 172.285C534.243 172.579 534.751 172.993 535.137 173.527C535.528 174.061 535.761 174.684 535.834 175.397H533.826C533.716 174.9 533.463 174.472 533.067 174.114C532.676 173.755 532.152 173.575 531.494 173.575C530.919 173.575 530.415 173.727 529.983 174.031C529.555 174.33 529.222 174.758 528.982 175.314C528.743 175.866 528.624 176.519 528.624 177.274C528.624 178.047 528.741 178.714 528.976 179.275C529.21 179.836 529.541 180.271 529.969 180.579C530.402 180.887 530.91 181.041 531.494 181.041C531.885 181.041 532.239 180.97 532.557 180.827C532.879 180.68 533.148 180.471 533.364 180.2C533.585 179.928 533.739 179.602 533.826 179.22H535.834C535.761 179.905 535.538 180.517 535.165 181.055C534.792 181.593 534.293 182.017 533.668 182.325C533.047 182.633 532.318 182.787 531.48 182.787ZM542.609 182.787C541.564 182.787 540.665 182.564 539.911 182.118C539.161 181.667 538.581 181.034 538.172 180.22C537.767 179.401 537.565 178.442 537.565 177.343C537.565 176.257 537.767 175.3 538.172 174.472C538.581 173.644 539.152 172.998 539.883 172.533C540.619 172.069 541.479 171.837 542.464 171.837C543.062 171.837 543.641 171.935 544.203 172.133C544.764 172.331 545.267 172.642 545.714 173.065C546.16 173.488 546.512 174.038 546.769 174.714C547.027 175.386 547.156 176.202 547.156 177.163V177.895H538.731V176.349H545.134C545.134 175.806 545.024 175.326 544.803 174.907C544.582 174.484 544.272 174.15 543.871 173.907C543.476 173.663 543.011 173.541 542.477 173.541C541.898 173.541 541.392 173.683 540.959 173.969C540.532 174.249 540.2 174.617 539.966 175.073C539.736 175.524 539.621 176.013 539.621 176.542V177.75C539.621 178.458 539.745 179.061 539.993 179.558C540.246 180.055 540.598 180.434 541.049 180.696C541.5 180.954 542.027 181.083 542.629 181.083C543.02 181.083 543.377 181.028 543.699 180.917C544.021 180.802 544.299 180.632 544.534 180.407C544.768 180.181 544.948 179.903 545.072 179.572L547.025 179.924C546.868 180.499 546.588 181.002 546.183 181.435C545.783 181.863 545.279 182.196 544.672 182.435C544.069 182.67 543.381 182.787 542.609 182.787ZM554.753 182.573V168.442H556.885V174.583H563.93V168.442H566.069V182.573H563.93V176.411H556.885V182.573H554.753ZM573.577 182.787C572.532 182.787 571.633 182.564 570.879 182.118C570.129 181.667 569.549 181.034 569.14 180.22C568.735 179.401 568.533 178.442 568.533 177.343C568.533 176.257 568.735 175.3 569.14 174.472C569.549 173.644 570.12 172.998 570.851 172.533C571.587 172.069 572.447 171.837 573.432 171.837C574.03 171.837 574.609 171.935 575.171 172.133C575.732 172.331 576.236 172.642 576.682 173.065C577.128 173.488 577.48 174.038 577.737 174.714C577.995 175.386 578.124 176.202 578.124 177.163V177.895H569.699V176.349H576.102C576.102 175.806 575.992 175.326 575.771 174.907C575.55 174.484 575.24 174.15 574.839 173.907C574.444 173.663 573.979 173.541 573.446 173.541C572.866 173.541 572.36 173.683 571.928 173.969C571.5 174.249 571.169 174.617 570.934 175.073C570.704 175.524 570.589 176.013 570.589 176.542V177.75C570.589 178.458 570.713 179.061 570.962 179.558C571.215 180.055 571.566 180.434 572.017 180.696C572.468 180.954 572.995 181.083 573.597 181.083C573.988 181.083 574.345 181.028 574.667 180.917C574.989 180.802 575.267 180.632 575.502 180.407C575.736 180.181 575.916 179.903 576.04 179.572L577.993 179.924C577.836 180.499 577.556 181.002 577.151 181.435C576.751 181.863 576.247 182.196 575.64 182.435C575.037 182.67 574.349 182.787 573.577 182.787ZM582.476 168.442V182.573H580.413V168.442H582.476ZM585.252 186.548V171.975H587.267V173.693H587.439C587.559 173.472 587.731 173.217 587.957 172.927C588.182 172.637 588.495 172.384 588.895 172.168C589.295 171.947 589.824 171.837 590.482 171.837C591.338 171.837 592.101 172.053 592.773 172.485C593.445 172.918 593.971 173.541 594.353 174.355C594.74 175.169 594.933 176.149 594.933 177.295C594.933 178.44 594.742 179.422 594.36 180.241C593.978 181.055 593.454 181.683 592.787 182.125C592.12 182.562 591.358 182.78 590.503 182.78C589.859 182.78 589.332 182.672 588.923 182.456C588.518 182.24 588.2 181.987 587.97 181.697C587.74 181.407 587.563 181.15 587.439 180.924H587.315V186.548H585.252ZM587.274 177.274C587.274 178.019 587.382 178.672 587.598 179.234C587.814 179.795 588.127 180.234 588.536 180.551C588.946 180.864 589.447 181.021 590.041 181.021C590.657 181.021 591.172 180.857 591.586 180.531C592 180.2 592.313 179.751 592.525 179.185C592.741 178.619 592.849 177.982 592.849 177.274C592.849 176.575 592.743 175.947 592.532 175.39C592.325 174.834 592.012 174.394 591.593 174.072C591.179 173.75 590.662 173.589 590.041 173.589C589.443 173.589 588.937 173.743 588.523 174.051C588.113 174.36 587.803 174.79 587.591 175.342C587.379 175.894 587.274 176.538 587.274 177.274Z" fill="black"/>
<circle cx="455.561" cy="135.427" r="5.39749" fill="#FF0606"/>
<circle cx="474.452" cy="135.427" r="5.39749" fill="#30C1FF"/>
<circle cx="493.343" cy="135.427" r="5.39749" fill="#A3DC2F"/>
<path d="M454.481 338.838L479.255 301.212L488.674 313.163L523.944 258.369L552.412 358.781L577.849 301.212L609.348 313.163L621.189 258.369L640.005 252.1L685.074 281.25L721.513 187.243L770.774 212.44" stroke="#003FDB" stroke-width="2.159" stroke-linecap="round" stroke-linejoin="round"/>
<path d="M455.561 386.924L481.161 334.549L489.755 370.213L523.828 330.469L553.496 399.904L578.934 362.434L610.435 370.213L622.276 334.549L641.093 330.469L691.084 370.213L735.458 277.712L761.059 334.549" stroke="#BDBDBD" stroke-width="2.159" stroke-linecap="round" stroke-linejoin="round" stroke-dasharray="8.64 8.64"/>
<path d="M459.714 435.558V434.348L463.996 427.583H464.949V429.364H464.345L461.281 434.213V434.29H467.151V435.558H459.714ZM464.412 437.494V435.19L464.422 434.639V427.583H465.84V437.494H464.412ZM472.288 437.658C471.523 437.655 470.87 437.453 470.328 437.053C469.786 436.653 469.371 436.071 469.084 435.306C468.797 434.542 468.654 433.621 468.654 432.543C468.654 431.469 468.797 430.551 469.084 429.79C469.375 429.029 469.791 428.448 470.333 428.048C470.878 427.648 471.53 427.448 472.288 427.448C473.046 427.448 473.696 427.649 474.238 428.053C474.78 428.453 475.194 429.033 475.482 429.795C475.772 430.553 475.917 431.469 475.917 432.543C475.917 433.624 475.774 434.547 475.486 435.311C475.199 436.073 474.785 436.655 474.243 437.058C473.701 437.458 473.049 437.658 472.288 437.658ZM472.288 436.366C472.959 436.366 473.483 436.039 473.86 435.384C474.241 434.729 474.432 433.782 474.432 432.543C474.432 431.721 474.344 431.025 474.17 430.458C473.999 429.887 473.752 429.454 473.43 429.161C473.11 428.864 472.73 428.716 472.288 428.716C471.62 428.716 471.096 429.045 470.715 429.703C470.334 430.361 470.142 431.308 470.139 432.543C470.139 433.369 470.225 434.068 470.396 434.639C470.57 435.206 470.817 435.637 471.136 435.931C471.455 436.221 471.839 436.366 472.288 436.366ZM487.749 427.583H489.249V434.101C489.249 434.795 489.086 435.41 488.76 435.945C488.434 436.477 487.976 436.897 487.386 437.203C486.795 437.507 486.103 437.658 485.31 437.658C484.519 437.658 483.829 437.507 483.239 437.203C482.648 436.897 482.19 436.477 481.864 435.945C481.538 435.41 481.376 434.795 481.376 434.101V427.583H482.871V433.981C482.871 434.429 482.969 434.827 483.166 435.176C483.366 435.524 483.648 435.798 484.013 435.998C484.377 436.195 484.81 436.294 485.31 436.294C485.813 436.294 486.247 436.195 486.611 435.998C486.979 435.798 487.26 435.524 487.453 435.176C487.65 434.827 487.749 434.429 487.749 433.981V427.583ZM496.828 430.187C496.776 429.729 496.563 429.374 496.189 429.122C495.815 428.867 495.344 428.74 494.776 428.74C494.37 428.74 494.018 428.804 493.721 428.933C493.424 429.059 493.194 429.233 493.029 429.456C492.868 429.675 492.787 429.925 492.787 430.206C492.787 430.442 492.842 430.645 492.952 430.816C493.065 430.987 493.211 431.13 493.392 431.246C493.576 431.359 493.773 431.455 493.982 431.532C494.192 431.606 494.394 431.667 494.587 431.716L495.555 431.967C495.871 432.045 496.196 432.15 496.528 432.282C496.86 432.414 497.168 432.588 497.452 432.805C497.736 433.021 497.965 433.289 498.139 433.608C498.317 433.927 498.405 434.31 498.405 434.755C498.405 435.316 498.26 435.815 497.97 436.25C497.683 436.686 497.265 437.029 496.717 437.281C496.171 437.532 495.512 437.658 494.737 437.658C493.995 437.658 493.353 437.54 492.811 437.305C492.269 437.069 491.845 436.736 491.539 436.303C491.232 435.868 491.063 435.352 491.031 434.755H492.531C492.56 435.113 492.676 435.411 492.879 435.65C493.086 435.885 493.349 436.061 493.668 436.177C493.991 436.29 494.344 436.347 494.728 436.347C495.15 436.347 495.526 436.281 495.855 436.148C496.187 436.013 496.449 435.826 496.639 435.587C496.829 435.345 496.925 435.063 496.925 434.74C496.925 434.447 496.841 434.206 496.673 434.019C496.508 433.832 496.284 433.677 496 433.555C495.72 433.432 495.402 433.324 495.047 433.23L493.876 432.911C493.082 432.695 492.453 432.377 491.989 431.958C491.527 431.538 491.297 430.984 491.297 430.293C491.297 429.722 491.452 429.224 491.761 428.798C492.071 428.372 492.49 428.041 493.019 427.806C493.549 427.567 494.145 427.448 494.81 427.448C495.481 427.448 496.073 427.566 496.586 427.801C497.102 428.037 497.509 428.361 497.805 428.774C498.102 429.183 498.257 429.654 498.27 430.187H496.828ZM503.4 437.494H500.192V427.583H503.502C504.473 427.583 505.307 427.782 506.004 428.178C506.701 428.572 507.235 429.138 507.606 429.877C507.98 430.613 508.167 431.495 508.167 432.524C508.167 433.556 507.978 434.443 507.601 435.185C507.227 435.927 506.685 436.498 505.975 436.898C505.265 437.295 504.407 437.494 503.4 437.494ZM501.687 436.187H503.318C504.073 436.187 504.701 436.045 505.201 435.761C505.701 435.474 506.075 435.06 506.323 434.518C506.572 433.972 506.696 433.308 506.696 432.524C506.696 431.746 506.572 431.087 506.323 430.545C506.078 430.003 505.712 429.591 505.225 429.311C504.738 429.03 504.133 428.89 503.41 428.89H501.687V436.187ZM542.681 437.494L547.008 428.938V428.866H542.004V427.583H548.556V428.909L544.244 437.494H542.681ZM553.476 437.658C552.712 437.655 552.058 437.453 551.516 437.053C550.974 436.653 550.56 436.071 550.273 435.306C549.986 434.542 549.842 433.621 549.842 432.543C549.842 431.469 549.986 430.551 550.273 429.79C550.563 429.029 550.979 428.448 551.521 428.048C552.066 427.648 552.718 427.448 553.476 427.448C554.234 427.448 554.884 427.649 555.426 428.053C555.968 428.453 556.383 429.033 556.67 429.795C556.96 430.553 557.105 431.469 557.105 432.543C557.105 433.624 556.962 434.547 556.675 435.311C556.388 436.073 555.973 436.655 555.431 437.058C554.889 437.458 554.237 437.658 553.476 437.658ZM553.476 436.366C554.147 436.366 554.671 436.039 555.049 435.384C555.43 434.729 555.62 433.782 555.62 432.543C555.62 431.721 555.533 431.025 555.359 430.458C555.188 429.887 554.941 429.454 554.618 429.161C554.299 428.864 553.918 428.716 553.476 428.716C552.808 428.716 552.284 429.045 551.903 429.703C551.523 430.361 551.331 431.308 551.328 432.543C551.328 433.369 551.413 434.068 551.584 434.639C551.758 435.206 552.005 435.637 552.324 435.931C552.644 436.221 553.028 436.366 553.476 436.366ZM568.937 427.583H570.437V434.101C570.437 434.795 570.274 435.41 569.948 435.945C569.622 436.477 569.164 436.897 568.574 437.203C567.984 437.507 567.292 437.658 566.498 437.658C565.708 437.658 565.017 437.507 564.427 437.203C563.837 436.897 563.378 436.477 563.053 435.945C562.727 435.41 562.564 434.795 562.564 434.101V427.583H564.059V433.981C564.059 434.429 564.158 434.827 564.354 435.176C564.554 435.524 564.837 435.798 565.201 435.998C565.566 436.195 565.998 436.294 566.498 436.294C567.001 436.294 567.435 436.195 567.8 435.998C568.168 435.798 568.448 435.524 568.642 435.176C568.839 434.827 568.937 434.429 568.937 433.981V427.583ZM578.016 430.187C577.965 429.729 577.752 429.374 577.377 429.122C577.003 428.867 576.532 428.74 575.964 428.74C575.558 428.74 575.206 428.804 574.91 428.933C574.613 429.059 574.382 429.233 574.218 429.456C574.056 429.675 573.976 429.925 573.976 430.206C573.976 430.442 574.03 430.645 574.14 430.816C574.253 430.987 574.4 431.13 574.58 431.246C574.764 431.359 574.961 431.455 575.171 431.532C575.381 431.606 575.582 431.667 575.776 431.716L576.744 431.967C577.06 432.045 577.384 432.15 577.716 432.282C578.048 432.414 578.357 432.588 578.64 432.805C578.924 433.021 579.153 433.289 579.328 433.608C579.505 433.927 579.594 434.31 579.594 434.755C579.594 435.316 579.449 435.815 579.158 436.25C578.871 436.686 578.453 437.029 577.905 437.281C577.36 437.532 576.7 437.658 575.926 437.658C575.184 437.658 574.542 437.54 574 437.305C573.458 437.069 573.034 436.736 572.727 436.303C572.421 435.868 572.251 435.352 572.219 434.755H573.719C573.748 435.113 573.864 435.411 574.068 435.65C574.274 435.885 574.537 436.061 574.856 436.177C575.179 436.29 575.532 436.347 575.916 436.347C576.339 436.347 576.714 436.281 577.044 436.148C577.376 436.013 577.637 435.826 577.827 435.587C578.018 435.345 578.113 435.063 578.113 434.74C578.113 434.447 578.029 434.206 577.861 434.019C577.697 433.832 577.473 433.677 577.189 433.555C576.908 433.432 576.59 433.324 576.235 433.23L575.064 432.911C574.271 432.695 573.642 432.377 573.177 431.958C572.716 431.538 572.485 430.984 572.485 430.293C572.485 429.722 572.64 429.224 572.95 428.798C573.259 428.372 573.679 428.041 574.208 427.806C574.737 427.567 575.334 427.448 575.998 427.448C576.669 427.448 577.261 427.566 577.774 427.801C578.29 428.037 578.697 428.361 578.994 428.774C579.29 429.183 579.445 429.654 579.458 430.187H578.016ZM584.589 437.494H581.381V427.583H584.69C585.661 427.583 586.495 427.782 587.192 428.178C587.889 428.572 588.423 429.138 588.794 429.877C589.168 430.613 589.355 431.495 589.355 432.524C589.355 433.556 589.167 434.443 588.789 435.185C588.415 435.927 587.873 436.498 587.163 436.898C586.453 437.295 585.595 437.494 584.589 437.494ZM582.876 436.187H584.507C585.261 436.187 585.889 436.045 586.389 435.761C586.889 435.474 587.263 435.06 587.512 434.518C587.76 433.972 587.884 433.308 587.884 432.524C587.884 431.746 587.76 431.087 587.512 430.545C587.266 430.003 586.9 429.591 586.413 429.311C585.926 429.03 585.321 428.89 584.598 428.89H582.876V436.187ZM627.296 427.583V437.494H625.796V429.083H625.738L623.367 430.632V429.2L625.839 427.583H627.296ZM633.427 437.658C632.662 437.655 632.009 437.453 631.467 437.053C630.925 436.653 630.511 436.071 630.223 435.306C629.936 434.542 629.793 433.621 629.793 432.543C629.793 431.469 629.936 430.551 630.223 429.79C630.514 429.029 630.93 428.448 631.472 428.048C632.017 427.648 632.669 427.448 633.427 427.448C634.185 427.448 634.835 427.649 635.377 428.053C635.919 428.453 636.334 429.033 636.621 429.795C636.911 430.553 637.056 431.469 637.056 432.543C637.056 433.624 636.913 434.547 636.626 435.311C636.338 436.073 635.924 436.655 635.382 437.058C634.84 437.458 634.188 437.658 633.427 437.658ZM633.427 436.366C634.098 436.366 634.622 436.039 635 435.384C635.38 434.729 635.571 433.782 635.571 432.543C635.571 431.721 635.484 431.025 635.309 430.458C635.138 429.887 634.892 429.454 634.569 429.161C634.25 428.864 633.869 428.716 633.427 428.716C632.759 428.716 632.235 429.045 631.854 429.703C631.474 430.361 631.282 431.308 631.278 432.543C631.278 433.369 631.364 434.068 631.535 434.639C631.709 435.206 631.956 435.637 632.275 435.931C632.595 436.221 632.979 436.366 633.427 436.366ZM642.223 437.658C641.459 437.655 640.805 437.453 640.263 437.053C639.721 436.653 639.307 436.071 639.02 435.306C638.733 434.542 638.589 433.621 638.589 432.543C638.589 431.469 638.733 430.551 639.02 429.79C639.31 429.029 639.726 428.448 640.268 428.048C640.813 427.648 641.465 427.448 642.223 427.448C642.981 427.448 643.631 427.649 644.173 428.053C644.715 428.453 645.13 429.033 645.417 429.795C645.707 430.553 645.852 431.469 645.852 432.543C645.852 433.624 645.709 434.547 645.422 435.311C645.135 436.073 644.72 436.655 644.178 437.058C643.636 437.458 642.984 437.658 642.223 437.658ZM642.223 436.366C642.894 436.366 643.418 436.039 643.796 435.384C644.176 434.729 644.367 433.782 644.367 432.543C644.367 431.721 644.28 431.025 644.105 430.458C643.935 429.887 643.688 429.454 643.365 429.161C643.046 428.864 642.665 428.716 642.223 428.716C641.555 428.716 641.031 429.045 640.65 429.703C640.27 430.361 640.078 431.308 640.075 432.543C640.075 433.369 640.16 434.068 640.331 434.639C640.505 435.206 640.752 435.637 641.071 435.931C641.391 436.221 641.775 436.366 642.223 436.366ZM657.684 427.583H659.184V434.101C659.184 434.795 659.021 435.41 658.695 435.945C658.369 436.477 657.911 436.897 657.321 437.203C656.731 437.507 656.039 437.658 655.245 437.658C654.455 437.658 653.764 437.507 653.174 437.203C652.584 436.897 652.125 436.477 651.8 435.945C651.474 435.41 651.311 434.795 651.311 434.101V427.583H652.806V433.981C652.806 434.429 652.904 434.827 653.101 435.176C653.301 435.524 653.584 435.798 653.948 435.998C654.313 436.195 654.745 436.294 655.245 436.294C655.748 436.294 656.182 436.195 656.547 435.998C656.914 435.798 657.195 435.524 657.389 435.176C657.585 434.827 657.684 434.429 657.684 433.981V427.583ZM666.763 430.187C666.712 429.729 666.499 429.374 666.124 429.122C665.75 428.867 665.279 428.74 664.711 428.74C664.305 428.74 663.953 428.804 663.656 428.933C663.36 429.059 663.129 429.233 662.964 429.456C662.803 429.675 662.723 429.925 662.723 430.206C662.723 430.442 662.777 430.645 662.887 430.816C663 430.987 663.147 431.13 663.327 431.246C663.511 431.359 663.708 431.455 663.918 431.532C664.127 431.606 664.329 431.667 664.523 431.716L665.49 431.967C665.807 432.045 666.131 432.15 666.463 432.282C666.795 432.414 667.103 432.588 667.387 432.805C667.671 433.021 667.9 433.289 668.075 433.608C668.252 433.927 668.341 434.31 668.341 434.755C668.341 435.316 668.195 435.815 667.905 436.25C667.618 436.686 667.2 437.029 666.652 437.281C666.107 437.532 665.447 437.658 664.673 437.658C663.931 437.658 663.289 437.54 662.747 437.305C662.205 437.069 661.781 436.736 661.474 436.303C661.168 435.868 660.998 435.352 660.966 434.755H662.466C662.495 435.113 662.611 435.411 662.814 435.65C663.021 435.885 663.284 436.061 663.603 436.177C663.926 436.29 664.279 436.347 664.663 436.347C665.086 436.347 665.461 436.281 665.79 436.148C666.123 436.013 666.384 435.826 666.574 435.587C666.765 435.345 666.86 435.063 666.86 434.74C666.86 434.447 666.776 434.206 666.608 434.019C666.444 433.832 666.22 433.677 665.936 433.555C665.655 433.432 665.337 433.324 664.982 433.23L663.811 432.911C663.018 432.695 662.389 432.377 661.924 431.958C661.463 431.538 661.232 430.984 661.232 430.293C661.232 429.722 661.387 429.224 661.697 428.798C662.006 428.372 662.426 428.041 662.955 427.806C663.484 427.567 664.081 427.448 664.745 427.448C665.416 427.448 666.008 427.566 666.521 427.801C667.037 428.037 667.444 428.361 667.741 428.774C668.037 429.183 668.192 429.654 668.205 430.187H666.763ZM673.336 437.494H670.127V427.583H673.437C674.408 427.583 675.242 427.782 675.939 428.178C676.636 428.572 677.17 429.138 677.541 429.877C677.915 430.613 678.102 431.495 678.102 432.524C678.102 433.556 677.914 434.443 677.536 435.185C677.162 435.927 676.62 436.498 675.91 436.898C675.2 437.295 674.342 437.494 673.336 437.494ZM671.623 436.187H673.254C674.008 436.187 674.636 436.045 675.136 435.761C675.636 435.474 676.01 435.06 676.259 434.518C676.507 433.972 676.631 433.308 676.631 432.524C676.631 431.746 676.507 431.087 676.259 430.545C676.013 430.003 675.647 429.591 675.16 429.311C674.673 429.03 674.068 428.89 673.345 428.89H671.623V436.187ZM716.043 427.583V437.494H714.543V429.083H714.485L712.113 430.632V429.2L714.586 427.583H716.043ZM722.174 437.629C721.509 437.629 720.916 437.515 720.393 437.286C719.874 437.057 719.462 436.739 719.159 436.332C718.859 435.923 718.698 435.448 718.675 434.91H720.195C720.214 435.203 720.312 435.458 720.49 435.674C720.671 435.887 720.906 436.052 721.196 436.168C721.487 436.284 721.809 436.342 722.164 436.342C722.555 436.342 722.9 436.274 723.2 436.139C723.503 436.003 723.74 435.815 723.911 435.573C724.082 435.327 724.168 435.045 724.168 434.726C724.168 434.393 724.082 434.101 723.911 433.85C723.743 433.595 723.497 433.395 723.171 433.25C722.848 433.105 722.458 433.032 722 433.032H721.162V431.813H722C722.367 431.813 722.69 431.746 722.967 431.614C723.248 431.482 723.467 431.298 723.626 431.063C723.784 430.824 723.863 430.545 723.863 430.225C723.863 429.919 723.793 429.653 723.655 429.427C723.519 429.198 723.326 429.019 723.074 428.89C722.826 428.761 722.532 428.696 722.193 428.696C721.871 428.696 721.569 428.756 721.288 428.875C721.011 428.991 720.785 429.159 720.611 429.379C720.437 429.595 720.343 429.854 720.33 430.158H718.883C718.899 429.622 719.058 429.151 719.358 428.745C719.661 428.338 720.061 428.02 720.558 427.791C721.054 427.562 721.606 427.448 722.213 427.448C722.848 427.448 723.397 427.572 723.858 427.82C724.322 428.066 724.68 428.393 724.932 428.803C725.187 429.212 725.313 429.661 725.31 430.148C725.313 430.703 725.158 431.174 724.845 431.561C724.535 431.948 724.122 432.208 723.606 432.34V432.417C724.264 432.517 724.774 432.779 725.135 433.201C725.5 433.624 725.681 434.148 725.677 434.774C725.681 435.319 725.529 435.808 725.222 436.24C724.919 436.673 724.505 437.013 723.979 437.261C723.453 437.507 722.851 437.629 722.174 437.629ZM730.957 437.658C730.192 437.655 729.539 437.453 728.997 437.053C728.455 436.653 728.04 436.071 727.753 435.306C727.466 434.542 727.323 433.621 727.323 432.543C727.323 431.469 727.466 430.551 727.753 429.79C728.044 429.029 728.46 428.448 729.002 428.048C729.547 427.648 730.199 427.448 730.957 427.448C731.715 427.448 732.365 427.649 732.907 428.053C733.449 428.453 733.863 429.033 734.15 429.795C734.441 430.553 734.586 431.469 734.586 432.543C734.586 433.624 734.442 434.547 734.155 435.311C733.868 436.073 733.454 436.655 732.912 437.058C732.37 437.458 731.718 437.658 730.957 437.658ZM730.957 436.366C731.628 436.366 732.152 436.039 732.529 435.384C732.91 434.729 733.1 433.782 733.1 432.543C733.1 431.721 733.013 431.025 732.839 430.458C732.668 429.887 732.421 429.454 732.099 429.161C731.779 428.864 731.399 428.716 730.957 428.716C730.289 428.716 729.765 429.045 729.384 429.703C729.003 430.361 728.811 431.308 728.808 432.543C728.808 433.369 728.894 434.068 729.065 434.639C729.239 435.206 729.486 435.637 729.805 435.931C730.124 436.221 730.508 436.366 730.957 436.366ZM746.418 427.583H747.918V434.101C747.918 434.795 747.755 435.41 747.429 435.945C747.103 436.477 746.645 436.897 746.055 437.203C745.464 437.507 744.772 437.658 743.979 437.658C743.188 437.658 742.498 437.507 741.908 437.203C741.317 436.897 740.859 436.477 740.533 435.945C740.207 435.41 740.044 434.795 740.044 434.101V427.583H741.54V433.981C741.54 434.429 741.638 434.827 741.835 435.176C742.035 435.524 742.317 435.798 742.682 435.998C743.046 436.195 743.479 436.294 743.979 436.294C744.482 436.294 744.916 436.195 745.28 435.998C745.648 435.798 745.929 435.524 746.122 435.176C746.319 434.827 746.418 434.429 746.418 433.981V427.583ZM755.497 430.187C755.445 429.729 755.232 429.374 754.858 429.122C754.484 428.867 754.013 428.74 753.445 428.74C753.039 428.74 752.687 428.804 752.39 428.933C752.093 429.059 751.863 429.233 751.698 429.456C751.537 429.675 751.456 429.925 751.456 430.206C751.456 430.442 751.511 430.645 751.621 430.816C751.734 430.987 751.88 431.13 752.061 431.246C752.245 431.359 752.442 431.455 752.651 431.532C752.861 431.606 753.063 431.667 753.256 431.716L754.224 431.967C754.54 432.045 754.864 432.15 755.197 432.282C755.529 432.414 755.837 432.588 756.121 432.805C756.405 433.021 756.634 433.289 756.808 433.608C756.986 433.927 757.074 434.31 757.074 434.755C757.074 435.316 756.929 435.815 756.639 436.25C756.352 436.686 755.934 437.029 755.385 437.281C754.84 437.532 754.181 437.658 753.406 437.658C752.664 437.658 752.022 437.54 751.48 437.305C750.938 437.069 750.514 436.736 750.208 436.303C749.901 435.868 749.732 435.352 749.7 434.755H751.2C751.229 435.113 751.345 435.411 751.548 435.65C751.755 435.885 752.017 436.061 752.337 436.177C752.659 436.29 753.013 436.347 753.397 436.347C753.819 436.347 754.195 436.281 754.524 436.148C754.856 436.013 755.118 435.826 755.308 435.587C755.498 435.345 755.594 435.063 755.594 434.74C755.594 434.447 755.51 434.206 755.342 434.019C755.177 433.832 754.953 433.677 754.669 433.555C754.389 433.432 754.071 433.324 753.716 433.23L752.545 432.911C751.751 432.695 751.122 432.377 750.658 431.958C750.196 431.538 749.966 430.984 749.966 430.293C749.966 429.722 750.121 429.224 750.43 428.798C750.74 428.372 751.159 428.041 751.688 427.806C752.217 427.567 752.814 427.448 753.479 427.448C754.15 427.448 754.742 427.566 755.255 427.801C755.771 428.037 756.177 428.361 756.474 428.774C756.771 429.183 756.926 429.654 756.939 430.187H755.497ZM762.069 437.494H758.861V427.583H762.171C763.142 427.583 763.976 427.782 764.673 428.178C765.37 428.572 765.904 429.138 766.275 429.877C766.649 430.613 766.836 431.495 766.836 432.524C766.836 433.556 766.647 434.443 766.27 435.185C765.895 435.927 765.354 436.498 764.644 436.898C763.934 437.295 763.076 437.494 762.069 437.494ZM760.356 436.187H761.987C762.742 436.187 763.37 436.045 763.87 435.761C764.37 435.474 764.744 435.06 764.992 434.518C765.241 433.972 765.365 433.308 765.365 432.524C765.365 431.746 765.241 431.087 764.992 430.545C764.747 430.003 764.381 429.591 763.894 429.311C763.407 429.03 762.802 428.89 762.079 428.89H760.356V436.187Z" fill="black"/>
<rect x="454.481" y="450.64" width="317.372" height="10.795" rx="5.39749" fill="#EFEFEF"/>
<defs>
<filter id="filter0_d_52_1248" x="0.564083" y="0.0147877" width="426.378" height="202.922" filterUnits="userSpaceOnUse" color-interpolation-filters="sRGB">
<feFlood flood-opacity="0" result="BackgroundImageFix"/>
<feColorMatrix in="SourceAlpha" type="matrix" values="0 0 0 0 0 0 0 0 0 0 0 0 0 0 0 0 0 0 127 0" result="hardAlpha"/>
<feOffset dy="5.4507"/>
<feGaussianBlur stdDeviation="13.218"/>
<feComposite in2="hardAlpha" operator="out"/>
<feColorMatrix type="matrix" values="0 0 0 0 0 0 0 0 0 0 0 0 0 0 0 0 0 0 0.09 0"/>
<feBlend mode="normal" in2="BackgroundImageFix" result="effect1_dropShadow_52_1248"/>
<feBlend mode="normal" in="SourceGraphic" in2="effect1_dropShadow_52_1248" result="shape"/>
</filter>
<filter id="filter1_d_52_1248" x="0.564083" y="175.973" width="426.378" height="429.617" filterUnits="userSpaceOnUse" color-interpolation-filters="sRGB">
<feFlood flood-opacity="0" result="BackgroundImageFix"/>
<feColorMatrix in="SourceAlpha" type="matrix" values="0 0 0 0 0 0 0 0 0 0 0 0 0 0 0 0 0 0 127 0" result="hardAlpha"/>
<feOffset dy="5.4507"/>
<feGaussianBlur stdDeviation="13.218"/>
<feComposite in2="hardAlpha" operator="out"/>
<feColorMatrix type="matrix" values="0 0 0 0 0 0 0 0 0 0 0 0 0 0 0 0 0 0 0.09 0"/>
<feBlend mode="normal" in2="BackgroundImageFix" result="effect1_dropShadow_52_1248"/>
<feBlend mode="normal" in="SourceGraphic" in2="effect1_dropShadow_52_1248" result="shape"/>
</filter>
<filter id="filter2_d_52_1248" x="401.058" y="88.5337" width="426.378" height="429.617" filterUnits="userSpaceOnUse" color-interpolation-filters="sRGB">
<feFlood flood-opacity="0" result="BackgroundImageFix"/>
<feColorMatrix in="SourceAlpha" type="matrix" values="0 0 0 0 0 0 0 0 0 0 0 0 0 0 0 0 0 0 127 0" result="hardAlpha"/>
<feOffset dy="5.4507"/>
<feGaussianBlur stdDeviation="13.218"/>
<feComposite in2="hardAlpha" operator="out"/>
<feColorMatrix type="matrix" values="0 0 0 0 0 0 0 0 0 0 0 0 0 0 0 0 0 0 0.09 0"/>
<feBlend mode="normal" in2="BackgroundImageFix" result="effect1_dropShadow_52_1248"/>
<feBlend mode="normal" in="SourceGraphic" in2="effect1_dropShadow_52_1248" result="shape"/>
</filter>
<linearGradient id="paint0_linear_52_1248" x1="355.904" y1="448.707" x2="593.299" y2="594.3" gradientUnits="userSpaceOnUse">
<stop stop-color="#1668E8"/>
<stop offset="1" stop-color="#1668E8" stop-opacity="0.23"/>
</linearGradient>
<linearGradient id="paint1_linear_52_1248" x1="365.991" y1="432.26" x2="570.361" y2="557.6" gradientUnits="userSpaceOnUse">
<stop stop-color="#1668E8"/>
<stop offset="1" stop-color="#1668E8" stop-opacity="0.23"/>
</linearGradient>
<linearGradient id="paint2_linear_52_1248" x1="377.728" y1="413.123" x2="543.955" y2="515.07" gradientUnits="userSpaceOnUse">
<stop stop-color="#1668E8"/>
<stop offset="1" stop-color="#1668E8" stop-opacity="0.23"/>
</linearGradient>
</defs>
</svg>
